<svg width="1292" height="861" viewBox="0 0 1292 861" fill="none" xmlns="http://www.w3.org/2000/svg">
<rect width="1292" height="861" fill="white"/>
<path fill-rule="evenodd" clip-rule="evenodd" d="M570.793 522.52C566.88 506.116 563.281 499.161 556.33 493.459C549.828 488.126 540.337 483.647 526.488 480.375C512.063 477.65 511.654 469.547 508.038 456.524C506.983 452.608 501.754 451.567 499.497 454.389C499.179 454.017 498.848 453.678 498.504 453.37C498.811 451.503 496.296 446.151 496.38 444.365C497.257 425.723 491.616 416.361 477.534 412.881C474.472 412.124 453.671 411.678 450.685 412.571C437.632 416.471 424.782 428.856 426.748 443.775C422.651 449.563 418.641 453.095 412.319 454.96C398.251 456.891 384.184 458.608 370.112 460.077C342.566 464.747 316.74 480.505 299.089 503.488C297.461 505.609 296.99 508.489 298.427 510.751C297.302 515.962 290.966 528.602 295.951 532.174C287.753 553.366 268.89 594.327 268.855 606.03C268.706 655.191 273.619 719.181 318.503 746.386C320.3 748.296 320.558 750.408 321.336 753.25C323.309 762.199 330.475 768.596 338.319 768.074C376.96 769.002 414.386 763.907 453.028 763.66C470.069 763.551 490.562 766.3 505.365 768.132C520.169 769.963 535.112 768.343 549.318 763.66C550.516 765.698 552.938 766.886 555.395 766.3C570.122 763.138 582.031 753.329 592.404 742.608C595.573 736.376 607.952 718.619 603.032 712.438C607.492 692.058 607.26 670.16 599.334 650.753C600.458 647.196 598.41 643.287 599.334 639.613C600.003 636.955 601.716 635.855 602.579 633.223C603.792 629.518 602.472 624.549 601.106 620.769C600.546 618.885 602.137 616.857 602.579 614.935C604.675 605.868 599.875 606.667 596.415 600.605C596.466 600.586 597.366 596.259 597.362 596.281C597.892 593.191 596.564 589.233 595.407 586.654C594.624 584.911 592.948 583.82 591.282 584.02C592.96 577.866 595.081 572.745 597.362 566.815C601.396 556.364 606.503 546.355 612.295 536.895C614.668 533.021 611.482 528.533 607.643 528.269C595.217 527.416 582.927 525.482 570.793 522.52Z" fill="white"/>
<path fill-rule="evenodd" clip-rule="evenodd" d="M534.528 601.559C529.559 599.453 524.207 598.288 518.829 597.836C521.725 597.288 524.629 596.759 527.556 596.487C529.599 596.298 531.493 596.317 533.028 597.992C534.053 599.108 534.533 600.545 535.206 601.865C534.986 601.758 534.757 601.656 534.528 601.559ZM587.872 581.864C579.733 582.311 571.584 584.403 564.222 588.193C561.209 589.746 558.48 591.988 557.68 595.677C557.276 597.56 557.375 599.506 557.59 601.409C557.752 602.85 557.793 604.689 558.951 605.665C559.148 605.83 559.359 605.956 559.579 606.048C556.863 607.373 554.277 608.965 551.978 610.605C549.878 612.105 547.718 614.415 546.749 617.021C546.668 616.725 546.587 616.449 546.506 616.187C544.854 610.907 542.309 606.582 538.3 603.675C539.009 603.331 539.498 602.515 539.269 601.389C538.317 596.686 534.299 592.6 529.761 592.891C524.791 593.206 519.453 595.162 514.958 597.633C513.32 597.594 511.686 597.618 510.07 597.696C509.792 597.705 509.805 598.114 510.07 598.147C511.381 598.327 512.692 598.526 514.003 598.759C517.118 599.298 520.225 599.982 523.264 600.831C526.91 601.851 530.681 602.874 534.088 604.655C540.696 608.116 544.787 617.162 543.947 625.034C543.808 626.325 543.346 630.227 541.689 629.824C540.288 629.484 539.732 626.325 539.242 625.155C537.931 622.049 535.57 620.021 532.737 618.647C529.41 617.031 525.85 615.939 522.402 614.668C520.45 613.945 518.497 613.221 516.539 612.503C514.537 611.761 512.633 610.736 510.501 611.256C509.212 611.571 509.064 613.231 509.787 614.183C510.887 615.633 512.521 616.06 514.106 616.657C516.198 617.443 518.286 618.23 520.373 619.016C523.601 620.229 526.982 621.253 530.128 622.738L530.03 622.981C529.774 622.903 529.473 623.18 529.523 623.52C529.994 626.66 530.65 630.29 529.922 633.435C529.348 635.929 527.322 638.691 524.692 637.958C525.105 637.55 525.258 636.847 524.979 636.196C523.937 633.789 510.29 624.287 509.073 627.815C509.033 627.941 509.158 628.033 509.257 628.014C510.294 627.781 512.032 629.693 512.862 630.3C514.061 631.174 515.277 632.027 516.463 632.925C517.76 633.906 519.026 634.935 520.261 635.997C521.231 636.833 521.962 637.701 523.075 638.124C522.492 638.424 522.029 638.982 521.832 639.696C521.329 641.554 520.36 643.132 518.676 643.952C516.912 644.806 514.923 644.267 513.064 644.476C510.532 644.753 508.324 646.054 506.478 647.913C502.604 651.824 500.66 658.716 495.241 660.564C492.004 661.667 488.413 660.972 485.136 660.472C481.477 659.914 477.912 659.472 474.226 660.055C470.698 660.613 467.362 661.933 464.139 663.544C461.117 665.054 457.777 666.762 455.097 669.014C454.545 667.175 453.988 665.355 453.565 663.476C452.569 659.036 452.031 654.512 451.9 649.95C451.779 645.607 452.004 641.244 452.349 636.919C452.52 634.76 452.789 632.61 452.96 630.45C453.004 629.907 453.095 629.324 453.162 628.742C457.948 625.689 462.975 623.35 468.044 620.943C468.058 620.938 468.071 620.928 468.085 620.924C468.242 620.846 468.395 620.773 468.552 620.7C468.547 620.69 468.543 620.681 468.534 620.671C469.113 620.288 469.517 619.778 469.759 619.205C477.064 613.969 483.169 606.82 487.722 598.482C489.63 594.988 491.466 591.362 493.962 588.3C496.62 585.034 499.776 583.092 503.681 582.083C508.247 580.899 512.952 580.19 517.63 579.787C520.185 579.569 523.039 579.229 525.823 579.244C527.763 579.258 529.661 579.438 531.404 579.957C533.985 580.724 535.494 582.845 537.114 584.99C538.663 587.048 540.203 589.111 541.649 591.256C543.017 593.289 544.311 595.39 545.433 597.594C546.107 598.914 546.731 600.273 547.256 601.675C547.44 602.171 547.682 602.733 547.795 603.248C547.907 603.767 547.7 604.316 548.239 604.316C546.017 604.349 546.039 608.188 548.248 608.048C556.895 607.504 544.508 589.256 542.699 586.713C540.135 583.112 537.491 578.414 533.388 576.739C533.33 576.715 533.267 576.691 533.209 576.672C534.403 575.448 535.345 573.983 536.248 572.493C537.177 570.959 538.286 569.202 538.591 567.382C538.784 566.223 537.451 565.562 536.818 566.577C535.898 568.057 535.453 569.93 534.766 571.557C534.066 573.206 533.213 574.764 532.54 576.429C530.919 575.89 529.168 575.643 527.386 575.561C529.635 572.27 533.477 565.922 533.94 565.106C536.068 561.33 538.093 557.439 540.028 553.541C542.12 549.319 543.911 544.922 545.914 540.651C547.049 538.23 548.194 535.788 549.456 533.439C549.891 532.633 550.358 531.828 550.888 531.095C550.991 530.95 551.121 530.828 551.243 530.692C551.382 530.61 551.525 530.517 551.606 530.469C552.333 530.018 552.589 528.97 553.101 528.304C553.918 527.232 554.879 527.106 556.109 527.091C558.73 527.062 561.362 527.173 563.979 527.251C567.827 527.368 571.67 527.533 575.512 527.751C576.675 527.819 577.833 527.887 578.996 527.965C584.586 528.324 590.17 528.794 595.742 529.372C600.671 529.882 605.601 530.712 610.535 531.11C603.854 548.266 596.447 565.112 588.06 581.37C587.975 581.534 587.912 581.699 587.872 581.864ZM550.807 626.063C549.73 626.597 548.684 627.262 547.709 628.019C547.871 626.84 547.911 625.597 547.867 624.35C548.67 625.281 549.698 625.815 550.807 626.063ZM596.801 596.551C596.725 596.56 596.653 596.604 596.617 596.686C595.127 600.011 595.75 603.723 598.184 606.33C599.459 607.688 602.238 609.222 602.148 611.455C602.072 613.26 600.254 614.774 599.477 616.264C598.754 617.652 598.485 619.176 599.064 620.681C599.805 622.607 601.874 623.374 602.584 625.267C603.482 627.669 602.023 630.567 600.999 632.658C600.047 634.595 598.817 636.531 598 638.579C592.527 641.642 587.629 646.34 583.418 651.111C578.808 656.328 574.853 662.467 567.53 662.312C566.798 662.297 566.242 662.715 565.91 663.292C563.871 663.394 561.829 663.438 559.79 663.448C556.208 663.467 552.625 663.428 549.047 663.306C548.796 662.37 548.98 661.099 548.966 660.307C548.922 657.759 548.899 655.216 548.8 652.668C548.773 651.96 548.746 651.246 548.72 650.538C550.008 653.056 552.522 654.202 555.386 654.027C559.993 653.736 564.626 652.921 569.186 652.188C571.589 651.804 573.986 651.368 576.379 650.902C578.345 650.523 581.12 650.621 582.494 648.917C582.817 648.519 582.835 647.791 582.327 647.524C580.967 646.801 580.11 647.203 578.614 647.515C576.792 647.897 574.965 648.261 573.133 648.602C569.617 649.261 566.094 649.873 562.56 650.411C560.549 650.717 558.533 651.018 556.518 651.256C554.758 651.46 552.773 651.736 551.355 650.305C548.495 647.412 550.098 642.564 551.907 639.642C551.943 639.584 551.943 639.531 551.929 639.482C553.635 639.05 555.337 638.545 557.034 638.191C560.298 637.512 563.584 636.939 566.875 636.43C573.636 635.386 580.442 634.697 587.238 634.003C588.922 633.828 588.94 630.965 587.238 631.135C577.474 632.101 567.66 633.017 558.026 635.051C555.611 635.556 553.213 636.128 550.83 636.774C549.703 637.075 548.495 637.546 547.314 637.561C547.243 637.561 547.17 637.561 547.099 637.555C544.787 637.478 544.45 635.338 545.721 633.557C545.878 633.338 546.039 633.119 546.205 632.911C548.45 630.018 551.247 628.087 554.129 626.087C557.357 625.611 560.576 624.553 563.737 623.777C571.539 621.855 579.342 619.933 587.149 618.016C588.68 617.638 588.029 615.095 586.498 615.468C580.572 616.92 574.646 618.37 568.72 619.822L560.046 621.948C558.313 622.37 556.149 623.219 554.111 623.525C553.106 623.675 552.132 623.694 551.252 623.472C548.41 622.744 548.266 618.904 549.492 616.623C550.865 614.061 553.46 612.459 555.763 611.008C559.755 608.489 564.002 606.679 568.15 604.592C568.886 604.417 569.622 604.243 570.359 604.068C574.642 603.049 579.535 602.549 583.567 600.681C584.774 600.127 584.114 598.069 582.92 598.099C579.791 598.172 576.518 599.375 573.461 600.088C570.152 600.865 566.839 601.637 563.53 602.408C563.198 602.486 561.232 603.165 560.935 603.015C560.747 602.918 560.679 602.21 560.617 601.743C560.414 600.21 560.266 598.599 560.486 597.06C560.971 593.609 563.633 591.988 566.327 590.663C572.325 587.717 578.902 585.874 585.448 585.136C586.956 584.966 588.465 584.859 589.982 584.806C591.764 584.747 593.232 584.408 594.135 586.305C595.553 589.295 596.334 593.139 596.801 596.551ZM588.472 704.945C587.165 700.059 587.52 694.841 586.625 689.858C586.163 687.286 585.532 684.735 584.844 682.225C584.288 680.198 583.361 678.041 583.256 675.925C583.25 675.784 583.404 675.702 583.509 675.767C585.353 676.909 586.769 679.377 587.821 681.313C589.08 683.63 590.041 686.057 590.816 688.608C592.361 693.691 593.63 699.822 591.637 704.945C591.044 706.47 588.961 706.775 588.472 704.945ZM548.082 640.225C549.186 640.109 550.291 639.88 551.395 639.613C550.161 640.914 549.02 642.481 548.387 644.219C548.289 642.885 548.162 641.554 547.997 640.23C548.024 640.23 548.055 640.23 548.082 640.225ZM537.468 741.934C535.521 740.465 534.101 738.411 532.45 736.599C530.825 734.816 533.365 732.07 534.989 733.854C536.399 735.399 537.622 737.331 539.28 738.582C540.079 739.183 540.448 740.27 539.925 741.238C539.463 742.091 538.264 742.535 537.468 741.934ZM526.607 685.468C530.162 683.807 533.659 681.997 537.38 680.8C539.603 680.084 540.545 683.832 538.335 684.543C534.908 685.646 531.694 687.291 528.42 688.82C526.318 689.803 524.491 686.457 526.607 685.468ZM489.062 684.305C488.192 681.987 491.669 680.987 492.525 683.274C493.512 685.905 494.642 688.469 495.628 691.1C496.497 693.419 493.022 694.419 492.165 692.133C491.179 689.501 490.048 686.937 489.062 684.305ZM452.004 730.614C451.425 731.449 450.459 731.902 449.547 731.311C448.783 730.816 448.316 729.5 448.903 728.655C450.615 726.189 452.349 723.752 454.355 721.553C455.982 719.77 458.52 722.518 456.895 724.298C455.103 726.262 453.533 728.412 452.004 730.614ZM446.705 470.777C448.354 471.994 449.798 473.473 451.206 474.994C452.844 476.763 450.303 479.508 448.666 477.739C447.48 476.457 446.283 475.156 444.892 474.13C444.089 473.537 443.729 472.433 444.248 471.473C444.714 470.613 445.904 470.186 446.705 470.777ZM500.619 533.256C499.687 535.273 498.848 537.251 498.795 539.544C498.739 542.042 495.147 542.044 495.204 539.544C495.273 536.544 496.296 533.941 497.518 531.296C498.551 529.057 501.648 531.026 500.619 533.256ZM520.401 483.077C522.332 481.686 524.128 485.05 522.214 486.43C520.662 487.547 519.11 488.666 517.559 489.784C515.629 491.175 513.833 487.811 515.746 486.432C517.298 485.313 518.849 484.195 520.401 483.077ZM434.601 570.81C434.271 573.278 430.811 572.222 431.137 569.778C431.642 566.002 432.259 562.275 433.206 558.596C433.827 556.189 437.29 557.218 436.669 559.628C435.722 563.307 435.105 567.034 434.601 570.81ZM422.008 615.285C419.697 615.232 419.696 611.35 422.008 611.403C424.1 611.451 426.157 612.046 428.175 612.59C430.42 613.196 429.463 616.94 427.22 616.334C425.514 615.873 423.777 615.326 422.008 615.285ZM417.36 704.876C416.566 705.294 415.751 705.67 414.948 706.067C413.341 706.861 411.734 707.657 410.127 708.454C406.781 710.115 403.436 711.781 400.095 713.453C393.406 716.8 386.665 720.03 379.959 723.34C373.121 726.717 366.302 730.139 359.49 733.578C356.281 735.197 353.048 736.758 349.821 738.335C347.062 739.684 343.651 742.04 340.622 742.262C340.466 742.274 340.414 742.061 340.503 741.952C341.647 740.545 343.473 739.726 344.977 738.812C346.513 737.877 348.078 736.998 349.636 736.107C352.884 734.247 356.135 732.401 359.414 730.607C365.973 727.019 372.545 723.456 379.118 719.899C385.822 716.27 392.517 712.617 399.279 709.117C402.463 707.469 405.65 705.826 408.839 704.188C410.567 703.301 412.295 702.415 414.023 701.531C414.77 701.149 415.509 700.737 416.272 700.395C417.286 699.942 418.057 700.034 419.103 699.755C420.809 699.3 421.548 701.645 420.238 702.666C419.16 703.507 418.592 704.226 417.36 704.876ZM393.383 744.687C393.015 743.719 393.786 742.542 394.638 742.299C395.657 742.009 396.475 742.679 396.847 743.655C397.831 746.244 399.234 748.62 401.039 750.626C402.653 752.419 400.114 755.166 398.499 753.372C396.237 750.857 394.612 747.918 393.383 744.687ZM375.744 682.367C374.106 680.597 376.647 677.852 378.283 679.622L382.938 684.653C384.575 686.423 382.035 689.168 380.398 687.398L375.744 682.367ZM327.99 674.163C324.643 675.224 320.74 676.2 318.459 679.286C318.347 679.437 318.16 679.243 318.227 679.093C321.148 672.547 329.524 670.25 335.324 667.957C339.426 666.335 343.634 664.99 347.879 663.788C347.454 658.554 348.624 652.944 349.031 647.735C349.465 642.175 349.819 636.599 350 631.021C350.185 625.33 350.23 619.602 350.057 613.91C349.885 608.239 349.204 602.637 348.905 596.985C348.877 596.439 349.581 596.412 349.732 596.864C351.495 602.109 352.248 607.919 352.822 613.449C353.412 619.146 353.609 624.827 353.533 630.557C353.455 636.449 353.138 642.327 352.703 648.2C352.497 650.984 352.258 653.764 352.032 656.545C351.86 658.668 351.78 660.774 351.379 662.829C353.939 662.15 356.505 661.508 359.062 660.883C367.218 658.894 375.408 657.048 383.529 654.896C387.516 653.841 391.445 652.576 395.414 651.453C399.151 650.395 403.095 649.113 406.932 648.641C408.301 648.473 408.475 650.497 407.569 651.185C404.451 653.551 400.309 655.2 396.707 656.525C393.092 657.854 389.335 658.81 385.63 659.795C377.903 661.85 370.103 663.529 362.315 665.279C354.537 667.026 346.745 668.761 339.055 670.917C335.351 671.956 331.661 672.998 327.99 674.163ZM309.652 570.293C307.652 571.562 305.847 568.205 307.839 566.94C310.446 565.286 313.225 564.043 316.026 562.831C318.175 561.901 319.1 565.658 316.981 566.575C314.463 567.664 311.994 568.807 309.652 570.293ZM302.411 714.538C300.406 715.795 298.6 712.439 300.599 711.186C303.406 709.427 306.481 708.253 309.391 706.713C311.461 705.617 313.279 708.968 311.203 710.066C308.294 711.605 305.219 712.779 302.411 714.538ZM299.154 632.658C301.093 634.649 303.68 635.586 306.12 636.632C308.247 637.543 307.314 641.296 305.165 640.375C302.126 639.072 299.03 637.883 296.615 635.403C294.935 633.678 297.479 630.937 299.154 632.658ZM320.601 521.458C322.732 522.362 321.799 526.115 319.646 525.203C317.259 524.19 314.793 523.419 312.405 522.407C310.275 521.503 311.208 517.75 313.36 518.663C315.748 519.675 318.213 520.446 320.601 521.458ZM358.435 477.29C360.699 476.877 361.664 480.619 359.39 481.034C356.568 481.549 353.79 482.151 351.115 483.271C348.954 484.174 348.027 480.419 350.16 479.527C352.836 478.408 355.614 477.805 358.435 477.29ZM370.936 584.829C368.859 583.726 370.681 580.379 372.748 581.477C374.926 582.635 377.183 583.53 379.56 584.077C381.823 584.598 380.859 588.34 378.605 587.821C375.93 587.204 373.385 586.131 370.936 584.829ZM382.742 524.254C384.978 523.592 385.924 527.338 383.697 527.998C379.78 529.158 375.747 529.761 371.802 530.793C369.553 531.382 368.602 527.637 370.847 527.05C374.792 526.017 378.826 525.415 382.742 524.254ZM432.829 505.245C435.103 505.699 434.134 509.441 431.875 508.989C429.47 508.508 427.032 508.5 424.594 508.499C422.279 508.498 422.284 504.615 424.594 504.616C427.364 504.618 430.099 504.699 432.829 505.245ZM596.182 525.529C590.314 524.922 584.437 524.437 578.552 524.073C578.277 524.058 578.009 524.039 577.734 524.024C577.703 523.956 577.663 523.893 577.622 523.825C575.701 520.777 574.287 517.73 573.061 514.283C571.889 511.002 570.754 507.62 568.949 504.66C566.891 501.287 564.112 498.648 561.066 496.36C559.219 497.703 557.504 499.276 555.935 500.942C554.285 502.696 551.744 499.951 553.396 498.197C554.79 496.716 556.277 495.347 557.85 494.111C556.034 492.918 554.181 491.797 552.374 490.682C545.599 486.504 538.663 482.64 531.583 479.108C528.293 477.462 524.961 476.001 521.608 474.521C519.803 473.725 518.021 472.701 516.216 471.779C516.346 470.4 515.965 468.857 514.986 467.949C514.263 467.285 513.702 467.037 512.84 466.567C512.647 466.493 512.53 466.45 512.476 466.426C512.517 466.435 512.633 466.474 512.826 466.542C513.284 466.771 513.32 466.702 512.934 466.343C512.912 465.557 511.479 463.898 511.152 463.087C510.012 460.306 509.657 457.365 507.973 454.831C505.652 451.342 501.756 450.022 498.123 451.206C497.746 447.008 497.648 442.626 496.184 438.879C496.144 438.777 496.014 438.733 495.955 438.845C494.429 441.655 494.299 444.785 494.182 448.027C494.07 451.07 494.177 454.181 494.545 457.204C494.312 457.399 494.074 457.583 493.827 457.763C492.669 458.588 491.421 459.223 490.11 459.695C487.614 460.587 484.996 460.975 482.379 461.111C475.623 461.461 468.659 460.723 462.015 459.471C455.294 458.204 444.991 456.302 439.011 452.667C435.064 450.27 431.424 447.343 427.733 444.508C429.072 439.849 429.413 434.841 428.066 430.905C427.904 430.434 427.222 430.347 427.092 430.905C426.248 434.661 426.001 438.437 424.878 442.15C424.86 442.203 424.842 442.262 424.825 442.315C424.474 442.058 424.124 441.805 423.774 441.553C422.966 440.975 421.866 441.408 421.381 442.232C413.627 455.438 401.349 456.195 388.456 458.554C374.345 461.136 360.163 463.921 346.596 468.973C333.622 473.808 321.222 480.845 311.399 491.357C309.175 493.737 307.096 496.273 305.133 498.92C307.032 499.179 308.915 499.582 310.774 500.213C312.976 500.961 312.03 504.708 309.82 503.957C307.43 503.146 305.014 502.744 302.574 502.544C295.9 512.415 290.695 523.607 286.195 534.623C277.563 555.745 271.945 578.239 269.359 601.14C270.779 600.22 272.224 599.344 273.705 598.529C275.763 597.398 277.578 600.748 275.518 601.882C273.23 603.14 271.008 604.526 268.855 606.03C267.914 616.054 267.55 626.143 267.771 636.216C268.296 660.23 271.295 684.947 278.078 707.859C281.405 719.104 285.814 730.257 292.382 739.76C295.354 744.064 298.73 747.947 302.707 751.184C304.633 752.756 306.672 754.159 308.822 755.343C311.592 756.877 315.201 757.381 317.59 759.551C318.376 760.265 318.982 761.206 319.439 762.269C319.175 764.288 319.143 766.311 319.655 768.33C319.817 768.962 320.257 769.476 320.8 769.723C320.809 769.898 320.809 770.068 320.809 770.233C320.809 770.31 320.917 770.33 320.93 770.253C320.952 770.102 320.975 769.951 320.997 769.797C321.172 769.859 321.356 769.889 321.545 769.889C328.364 769.916 335.192 769.737 342.021 769.486C341.493 767.738 340.921 766.004 340.372 764.256C339.626 761.88 343.096 760.87 343.835 763.224C344.478 765.268 345.149 767.294 345.747 769.346C353.063 769.052 360.377 768.698 367.678 768.438C383.207 767.879 398.732 767.695 414.265 767.341C438.387 766.788 462.685 765.656 486.844 766.763C487.68 764.846 488.615 762.973 489.502 761.083C490.548 758.851 493.645 760.818 492.603 763.042C491.986 764.356 491.348 765.653 490.742 766.965C495.635 767.239 500.523 767.602 505.4 768.098C513.724 768.942 521.967 770.442 530.281 771.374C538.735 772.325 547.005 772.155 555.391 770.646C556.899 770.374 557.788 769.388 558.156 768.165C558.169 768.161 558.179 768.151 558.187 768.136C558.618 767.593 559.023 767.142 559.44 766.748C559.939 766.399 560.477 766.103 561.11 765.841C562.291 765.355 563.521 765.059 564.769 764.86C566.143 764.638 567.535 764.618 568.909 764.434C570.066 764.274 571.198 764.035 572.329 763.745C574.363 763.22 576.294 762.536 578.215 761.628C579.89 760.837 581.402 759.702 582.83 758.464C585.784 756.129 588.343 753.15 590.579 750.053C591.881 748.243 593.107 746.365 594.22 744.409C596.159 741.021 597.811 737.503 599.482 733.955C600.088 732.904 600.641 731.827 601.146 730.728C597.882 729.688 594.587 728.841 591.127 728.781C588.814 728.741 588.815 724.858 591.127 724.898C595.095 724.967 598.849 725.969 602.578 727.163C602.76 726.641 602.934 726.116 603.096 725.583C603.54 724.472 603.908 723.331 604.213 722.176C604.393 721.652 604.573 721.128 604.752 720.604C605.156 718.789 605.56 716.969 605.969 715.149C606.781 712.237 607.423 709.281 607.895 706.287C608.29 704.316 608.595 702.331 608.802 700.322C609.43 695.454 609.942 690.596 609.978 685.675C609.924 682.642 609.744 679.613 609.439 676.599C609.309 674.551 609.089 672.513 608.793 670.489C608.407 667.48 608.025 664.501 607.383 661.53C606.903 659.521 606.422 657.512 605.942 655.502C604.743 651.315 603.329 647.208 601.699 643.195C601.61 642.943 601.156 642.389 600.882 642.384C600.676 642.379 600.388 642.583 600.482 642.855C600.492 642.879 600.5 642.908 600.51 642.933C600.415 642.705 600.326 642.472 600.231 642.243C600.15 642.03 599.836 641.603 599.594 641.608C599.58 641.608 599.566 641.608 599.549 641.613C599.612 641.565 599.67 641.501 599.728 641.429C601.34 639.366 602.386 636.653 603.54 634.265C604.496 632.294 605.399 630.217 605.659 627.99C605.888 626.034 605.578 624.107 604.442 622.525C603.149 620.724 600.716 619.88 602.067 617.278C603.603 614.318 605.861 611.751 603.612 608.387C602.467 606.674 600.653 605.733 599.306 604.243C597.758 602.52 597.021 600.215 597.062 597.861C597.156 597.919 597.282 597.89 597.327 597.744C598.629 593.493 597.686 588.824 596.352 584.684C595.625 582.438 594.085 581.821 592.294 581.71C600.051 565.33 607.311 548.688 613.78 531.663C613.996 531.105 614.207 530.547 614.417 529.988C614.732 529.154 614.068 528.043 613.3 527.858C607.706 526.533 601.879 526.111 596.182 525.529Z" fill="black"/>
<path fill-rule="evenodd" clip-rule="evenodd" d="M531.463 322.659C530.396 307.738 532.049 292.099 526.728 277.917C517.449 254.386 491.43 246.54 471.258 237.582C463.177 235 435.986 234.64 426.524 231.223C405.109 223.491 399.992 214.279 382.976 229.001C380.104 231.516 378.307 234.249 376.996 237.984L377.05 238C376.675 239.556 377.077 241.11 377.92 242.297C370.542 250.449 367.455 262.671 371.241 273.524C383.594 301.764 383.013 317.034 379.033 347.394C373.835 375.737 385.713 386.09 405.384 401.512C404.583 403.19 404.417 405.421 405.461 406.903C428.207 441.457 471.096 457.955 507.844 440.417C522.76 433.24 529.419 416.067 533.219 400.573C537.646 383.223 539.007 364.941 535.403 347.267C533.949 339.093 532.055 330.979 531.463 322.659Z" fill="white"/>
<path fill-rule="evenodd" clip-rule="evenodd" d="M400.255 157.348C403.016 156.9 405.102 158.752 406.093 161.362L406.145 161.503C406.464 162.391 406.819 163.255 407.201 164.104C414.11 160.44 423.969 161.381 428.341 168.802C431.461 174.102 429.558 180.392 428.382 186.012L427.609 189.715C429.102 190.741 430.228 192.58 430.175 194.484L430.168 194.631L429.854 199.795C430.851 198.703 431.762 197.514 432.575 196.247C433.136 195.136 433.742 194.044 434.393 192.986C438.223 186.759 446.82 192.17 443.659 198.839C443.053 200.125 442.371 201.343 441.639 202.517C440.813 204.25 440.135 206.031 439.614 207.861C441.109 208.565 442.259 210.127 442.38 212.486C442.663 217.994 439.987 222.59 435.731 225.478C434.478 226.327 433.185 226.492 432.014 226.177C431.807 226.478 431.601 226.779 431.403 227.084C433.1 228.574 434.631 230.273 435.946 232.156C439.906 231.515 443.888 231.215 447.87 231.205C452.737 228.628 458.564 228.681 463.794 229.647C467.161 230.268 470.394 231.477 473.707 232.345C477.2 233.258 480.746 233.292 484.28 233.913C488.733 234.694 492.639 236.917 495.095 240.465C497.793 240.552 500.63 241.746 502.983 243.367C508.46 247.143 513.905 250.972 519.369 254.772C521.466 256.231 522.25 258.56 521.864 261.158L521.838 261.324L521.654 262.401L522.086 263.065C523.758 265.617 525.578 268.291 526.66 271.108C528.662 274.229 530.471 277.5 532.074 280.873C534.234 285.406 536.016 290.21 537.224 295.141C537.524 296.389 537.825 297.646 538.023 298.917C538.306 300.713 537.87 302.106 537.632 303.829C537.336 306.013 537.228 308.226 536.914 310.414C536.703 311.866 535.562 312.579 534.368 312.618C534.817 316.311 535.14 320.029 535.45 323.717C535.886 328.988 536.182 334.273 536.438 339.558C537.758 341.63 540.456 343.271 542.404 343.839C545.103 344.62 547.931 343.771 550.481 342.776C552.084 342.15 553.399 344.329 552.618 345.785C550.162 350.356 544.909 350.337 540.932 348.313C539.248 347.459 537.771 346.222 536.676 344.61C536.743 346.144 536.815 347.677 536.887 349.216L536.954 350.609C537.763 366.883 539.509 383.717 536.68 399.83C531.782 427.741 510.416 448.993 484.316 450.644C470.619 451.51 459.214 447.136 453.542 444.697C447.87 442.257 450.075 437.283 454.012 438.705C460.795 441.154 473.255 444.804 484.405 443.228C510.687 439.514 532.972 425.314 530.682 364.154C530.358 355.481 529.358 346.804 529.143 338.131C528.936 329.653 529.012 321.169 528.667 312.695L528.551 309.804C528.416 306.426 528.272 303.032 528.038 299.65C527.755 298.34 527.522 297.01 527.176 295.724C526.238 292.224 525.012 288.822 523.49 285.576C523.154 285.852 522.777 286.051 522.368 286.129C519.266 286.731 516.357 286.561 513.452 285.163C512.096 284.518 510.902 283.659 509.789 282.596C509.259 282.096 508.904 281.61 508.626 281.106C507.221 281.13 505.815 280.674 504.936 279.582C503.932 278.337 503.765 277.052 504.158 275.862L504.199 275.743L504.1 275.704C502.915 279.019 500.554 281.936 497.963 283.906C493.869 287.032 488.747 287.934 483.835 288.017C478.412 288.104 472.692 287.201 467.341 286.279C465.927 286.037 464.522 285.76 463.143 285.386C463.09 285.445 463.036 285.512 462.977 285.571C458.385 290.322 451.924 291.545 446.097 288.832C442.73 287.264 439.906 284.741 437.41 281.848C437.374 283.362 437.302 284.877 437.181 286.376L437.131 286.972C436.882 289.765 436.404 292.728 434.451 294.743C431.295 298.01 426.716 296.699 423.075 294.573C423.08 294.675 423.08 294.782 423.08 294.889C424.063 298.5 425.051 302.115 426.038 305.731L426.251 306.501C426.969 309.069 427.757 311.639 427.973 314.326C428.386 319.461 425.226 324.532 419.946 322.81C417.177 321.909 414.958 319.392 412.829 317.376L411.488 316.122C414.958 328.386 417.365 341.087 417.589 353.885C417.603 354.579 417.05 355.103 416.44 355.127C415.012 355.19 413.477 354.885 412.04 354.268C411.959 354.263 411.879 354.258 411.793 354.244C409.342 353.861 407.066 352.904 405.059 351.492C405.521 353.079 405.728 354.783 405.607 356.564C405.575 356.996 404.951 357.146 404.862 356.671C403.703 350.512 397.036 345.858 391.29 347.037C385.121 348.304 380.578 354.04 379.465 360.568C378.271 367.581 380.556 375.69 384.789 381.102C386.738 383.596 389.301 385.678 392.345 386.202C393.737 386.44 395.182 386.358 396.534 385.931C397.108 385.746 397.647 385.489 398.195 385.246C398.994 384.897 399.928 384.844 400.682 384.475C402.392 383.645 404.112 385.348 403.245 387.246C402.491 388.901 401.813 390.017 400.561 390.871C401.575 392.211 402.496 394.074 402.837 394.574C404.579 397.117 406.348 399.52 408.332 401.844C410.352 404.203 412.556 406.358 414.886 408.353L415.866 409.189C418.11 411.113 420.064 412.896 421.648 415.657C422.896 417.836 421.279 420.791 418.94 420.757C411.623 420.646 406.303 413.696 402.514 407.625C401.975 406.756 401.468 405.839 400.996 404.897C400.826 405.193 400.637 405.47 400.426 405.722L400.843 406.935C402.083 410.507 396.745 412.842 395.196 409.508C394.069 407.091 392.762 404.79 391.308 402.616C390.45 402.485 389.611 401.922 389.144 401.194C387.963 399.345 386.639 397.476 385.521 395.506C384.901 394.87 384.264 394.259 383.613 393.662C383.424 393.841 383.231 394.021 383.047 394.21C382.23 396.224 381.22 398.064 379.968 399.796L379.699 400.166C377.299 403.435 374.174 406.781 370.306 407.581C369.126 407.824 367.99 406.237 369.036 405.222C371.743 402.592 374.944 400.801 377.44 397.865C378.67 396.418 379.799 394.825 380.77 393.155L380.991 392.769C381.153 392.482 381.319 392.196 381.49 391.905C380.363 391.075 379.236 390.24 378.109 389.406C375.007 392.271 370.967 393.581 367.536 395.954L367.195 396.195C364.093 398.437 360.825 393.477 363.312 390.755C366.053 387.765 368.342 384.199 370.771 380.876C369.629 378.601 369.088 375.912 368.886 373.194C368.806 372.425 368.744 371.655 368.681 370.886C366.939 370.915 365.188 370.269 363.707 369.158L363.146 368.726C361.345 369.347 359.455 369.648 357.646 369.595C353.39 369.459 351.648 364.203 354.31 360.878C357.027 357.481 361.781 356.738 365.548 358.389C365.669 358.321 365.794 358.248 365.916 358.175C365.736 357.282 365.776 356.472 365.98 355.761L365.921 355.327C365.093 353.953 364.548 352.384 364.342 350.727C364.178 349.414 364.211 348.113 364.493 346.817C364.586 346.385 364.78 345.938 364.929 345.488C364.623 344.652 364.443 343.789 364.387 342.92C364.301 342.81 364.216 342.697 364.135 342.574C362.266 339.738 362.644 336.319 364.422 334.024C364.431 333.878 364.443 333.732 364.462 333.587C364.357 333.333 364.262 333.078 364.175 332.819C362.437 330.924 361.161 328.643 361.399 325.817C361.538 324.154 362.171 322.658 363.127 321.539C362.958 320.996 362.941 320.368 363.147 319.843C361.62 315.453 361.813 310.165 362.912 305.255C362.67 304.508 362.544 303.698 362.571 302.838C362.697 299.194 365.615 295.845 369.072 295.889C369.488 295.893 369.878 295.951 370.252 296.037L370.257 295.95C370.389 294.856 370.668 293.845 371.074 292.938C370.874 292.86 370.689 292.748 370.527 292.599C368.312 293.877 365.968 294.853 363.511 295.518C361.704 296.008 359.853 293.787 360.976 291.954C361.497 291.103 362.072 290.339 362.692 289.641C361.811 289.646 360.917 289.711 360.012 289.837C358.387 290.065 356.573 288.866 355.518 287.245C354.207 288.623 352.892 289.997 351.576 291.37C348.245 294.86 343.213 292.292 342.687 287.692C341.695 287.405 340.77 286.92 339.958 286.226C334.705 288.691 329.053 290.045 323.275 290.303C319.127 290.487 316.702 285.265 318.642 281.577C319.944 279.101 321.56 276.879 323.423 274.947C320.532 275.903 317.546 276.592 314.498 277.034C312.851 277.272 310.521 275.796 309.861 274.161C307.337 267.871 307.553 261.314 310.458 255.194C310.57 254.952 310.696 254.719 310.817 254.486C311.118 253.675 311.445 252.875 311.8 252.088C308.226 248.06 307.917 242.071 309.843 237.058C309.07 235.704 308.774 234.073 309.299 232.598C310.794 228.351 312.949 224.43 315.67 221.062C315.41 220.518 315.181 219.94 314.987 219.319C313.457 214.296 315.23 208.234 318.808 204.735C321.057 202.532 323.643 201.212 326.404 200.367C327.567 198.145 329.062 196.14 330.804 194.451C330.871 194.291 330.938 194.131 331.015 193.971C333.726 188.448 338.665 185.487 343.958 184.803C344.164 182.643 345.511 180.581 347.469 179.911C348.007 178.043 348.811 176.257 349.915 174.636C351.653 172.083 354.539 170.879 357.26 172.554C358.751 173.471 360.178 174.524 361.516 175.689C362.117 175.384 362.798 175.187 363.567 175.124L363.761 175.111L368.187 174.869C370.041 173.98 371.891 173.049 373.745 172.141C374.859 171.146 376.102 170.316 377.458 169.7C378.993 169.006 380.565 168.613 382.14 168.482C383.42 168.03 384.708 167.632 386.019 167.322C389.099 166.594 392.323 166.186 395.519 166.22C395.584 165.326 395.617 164.421 395.611 163.505L395.604 163.046C395.532 160.11 397.701 157.766 400.255 157.348ZM397.153 392.269C396.713 392.371 396.269 392.453 395.824 392.512C395.959 392.871 396.094 393.23 396.224 393.589C396.583 393.807 396.947 394.016 397.31 394.21C397.203 393.55 397.14 392.885 397.153 392.269ZM374.088 384.859L373.789 385.454C373.741 385.551 373.693 385.647 373.646 385.741C374.279 385.688 374.917 385.702 375.545 385.78L375.544 385.708C375.463 385.678 375.382 385.651 375.305 385.61C374.871 385.385 374.468 385.133 374.088 384.859ZM386.554 357.753C390.526 358.003 393.891 358.661 397.503 360.54L397.813 360.704C401.005 362.417 406.285 365.581 405.84 370.119C405.715 371.41 404.848 372.769 403.483 372.667C399.744 372.39 397.607 368.313 395.075 365.77C392.52 363.208 389.382 360.573 386.289 358.811C385.851 358.563 386.024 357.778 386.5 357.752L386.554 357.753ZM368.542 297.966C367.59 298 367.909 299 368.398 298.165C368.439 298.097 368.488 298.029 368.542 297.966ZM419.917 231.223C410.903 231.48 401.832 237.233 395.079 243.049C389.205 248.108 384.132 254.126 379.64 260.612C378.485 263.843 377.493 267.141 376.654 270.463C376.102 272.656 375.757 274.874 375.294 277.087L375.15 277.766C374.787 278.5 374.517 279.289 374.321 280.105C375.139 280.992 376.201 281.627 377.37 281.929C377.747 282.026 378.06 282.236 378.307 282.515C379.248 280.817 380.07 279.025 380.549 277.126L380.566 277.038C382.375 273.835 384.34 270.732 386.446 267.735C392.255 259.46 398.653 251.918 406.343 245.643C412.175 240.887 418.693 237.16 425.625 234.738C423.929 233.258 422.002 232.088 419.917 231.223Z" fill="black"/>
<path fill-rule="evenodd" clip-rule="evenodd" d="M501.177 411.183C497.87 412.218 494.32 412.311 490.949 411.241C487.891 410.271 484.752 408.137 482.501 405.312C480.502 402.803 479.207 399.753 479.258 396.498C479.264 396.126 479.387 395.816 479.576 395.575C479.78 395.316 480.064 395.138 480.369 395.06C480.682 394.981 481.013 395.009 481.296 395.148C481.551 395.273 481.77 395.486 481.906 395.797C482.252 396.288 482.597 396.772 482.943 397.243C485.723 400.955 488.416 403.728 492.598 404.723C494.866 405.263 497.132 405.024 499.211 404.2C501.437 403.318 503.449 401.768 505.025 399.784C505.737 398.887 506.579 398.521 507.401 398.515C508.333 398.508 509.254 398.976 509.948 399.724C510.63 400.46 511.087 401.46 511.129 402.505C511.165 403.423 510.888 404.381 510.151 405.237C507.725 408.054 504.58 410.117 501.177 411.183ZM501.075 364.693C504.465 366.921 509.631 372.115 505.984 377.638C501.691 382.507 495.51 376.924 492.464 374.399C489.64 372.442 486.467 377.475 489.087 379.76C511.096 397.375 520.028 365.275 502.79 362.074C500.892 361.721 500.187 364.004 501.075 364.693ZM469.362 354.891C468.272 354.137 466.99 353.879 465.57 354.578C464.46 355.123 462.513 356.943 461.158 359.334C460.231 360.97 459.574 362.89 459.71 364.889C459.742 365.353 459.583 365.695 459.333 365.949C459.135 366.149 458.85 366.295 458.514 366.341C458.23 366.38 457.911 366.345 457.652 366.258C457.159 366.091 456.898 365.746 456.799 365.463C455.851 362.74 456.259 359.7 457.323 356.958C458.758 353.258 461.364 350.158 463.071 349.158C465.992 347.448 469.439 347.369 472.365 349.112C474.855 350.595 476.413 352.99 477.961 355.431C478.291 355.95 478.617 356.465 478.955 356.971C479.632 357.985 479.699 358.991 479.437 359.853C479.147 360.809 478.406 361.615 477.481 362.037C476.625 362.427 475.632 362.482 474.753 362.081C474.01 361.743 473.329 361.083 472.898 359.963C472.172 358.078 470.962 355.997 469.362 354.891V354.891ZM524.701 359.086C523.955 359.506 523.371 359.633 522.543 359.365C522.086 359.216 521.633 358.931 521.279 358.549C520.928 358.169 520.675 357.697 520.576 357.174C520.334 355.882 519.68 354.672 518.748 353.884C517.952 353.21 516.946 352.852 515.831 353.054C514.628 353.271 513.481 354.105 512.692 355.089C512.428 355.418 512.221 355.792 512.013 356.163C511.624 356.858 511.246 357.503 510.709 358.013C510.506 358.207 510.199 358.341 509.902 358.341C509.782 358.341 509.659 358.32 509.542 358.281C508.345 356.981 508.114 355.995 508.153 355.018C508.194 353.992 508.567 352.954 509.172 351.985C510.589 349.713 513.281 347.85 515.097 347.428C517.585 346.85 520.055 347.544 522.035 349.046C524.073 350.591 525.583 352.99 526.054 355.694C526.167 356.345 526.119 357.048 525.89 357.657C525.666 358.253 525.275 358.763 524.701 359.086ZM474.848 330.665C473.355 332.237 471.588 332.48 469.801 332.697C468.808 332.819 468.015 332.916 467.235 333.107C465.09 333.63 462.971 334.418 461.037 335.553C459.016 336.74 456.813 338.17 455.228 340.004C454.851 340.44 454.496 340.898 454.14 341.356C453.816 341.775 453.503 342.177 453.174 342.566C452.796 343.012 452.436 343.479 452.079 343.945C451.858 344.339 451.815 344.435 451.77 344.536C451.703 344.687 451.625 344.857 451.536 345.038C451.415 345.287 451.272 345.56 451.123 345.807C450.874 346.258 450.741 346.382 450.625 346.438C450.434 346.53 450.253 346.575 450.077 346.551C449.912 346.528 449.756 346.442 449.603 346.302C448.836 345.602 448.61 344.453 448.633 343.234C448.669 341.383 449.3 339.335 449.882 338.075C451.235 335.149 453.112 332.107 455.369 329.923C457.944 327.43 460.761 325.542 463.997 324.242C466.008 323.433 468.337 322.691 470.527 322.785C472.104 322.852 473.61 323.359 474.853 324.625C475.617 325.401 475.983 326.506 475.983 327.611C475.983 328.737 475.602 329.87 474.848 330.665ZM527.737 345.062C527.642 345.23 527.511 345.346 527.365 345.415C527.211 345.488 527.04 345.509 526.876 345.48C526.712 345.45 526.557 345.37 526.434 345.247C526.316 345.13 526.226 344.974 526.186 344.784C525.194 340.078 523.27 336.577 519.163 334.32C517.142 333.209 514.819 332.503 512.62 331.941C511.98 331.777 511.305 331.671 510.625 331.564C508.493 331.228 506.347 330.842 504.957 328.98C504.12 327.858 503.768 326.423 503.967 325.111C504.154 323.875 504.822 322.742 506.036 322.063C509.059 320.374 512.815 322.032 515.867 323.444C516.093 323.549 516.315 323.652 516.533 323.751C519.518 325.113 522.24 326.911 524.478 329.482C526.254 331.521 527.899 334.537 528.561 337.639C529.112 340.22 528.983 342.854 527.737 345.062Z" fill="black"/>
<path fill-rule="evenodd" clip-rule="evenodd" d="M729.439 520.398C733.352 503.995 736.95 497.039 743.902 491.338C750.404 486.005 759.895 481.526 773.744 478.254C788.168 475.528 788.577 467.425 792.194 454.402C793.249 450.487 798.477 449.445 800.734 452.267C801.052 451.896 801.384 451.556 801.727 451.249C801.42 449.382 803.935 444.03 803.851 442.244C802.974 423.602 808.616 414.24 822.697 410.76C825.76 410.003 846.56 409.557 849.546 410.449C862.599 414.35 875.45 426.735 873.483 441.654C877.581 447.442 881.591 450.974 887.912 452.839C901.981 454.769 916.048 456.486 930.119 457.956C957.665 462.625 983.491 478.384 1001.14 501.366C1002.77 503.488 1003.24 506.368 1001.8 508.63C1002.93 513.841 1009.27 526.48 1004.28 530.053C1012.48 551.245 1031.34 592.206 1031.38 603.908C1031.53 653.07 1026.61 717.059 981.728 744.265C979.931 746.174 979.674 748.287 978.896 751.128C976.922 760.078 969.756 766.475 961.912 765.952C923.271 766.881 885.845 761.785 847.204 761.539C830.163 761.43 809.669 764.179 794.866 766.01C780.063 767.842 765.12 766.222 750.913 761.539C749.716 763.577 747.294 764.764 744.837 764.179C730.11 761.017 718.2 751.208 707.828 740.487C704.658 734.254 692.279 716.497 697.2 710.316C692.739 689.937 692.971 668.038 700.897 648.632C699.774 645.075 701.822 641.165 700.897 637.492C700.228 634.833 698.515 633.734 697.653 631.101C696.439 627.397 697.759 622.428 699.125 618.648C699.685 616.764 698.095 614.736 697.653 612.813C695.557 603.746 700.357 604.545 703.817 598.484C703.765 598.465 702.866 594.138 702.87 594.159C702.34 591.07 703.667 587.112 704.825 584.533C705.607 582.79 707.284 581.699 708.949 581.899C707.272 575.745 705.151 570.624 702.87 564.694C698.835 554.242 693.729 544.234 687.936 534.773C685.564 530.9 688.75 526.412 692.589 526.148C705.015 525.294 717.304 523.361 729.439 520.398Z" fill="white"/>
<path fill-rule="evenodd" clip-rule="evenodd" d="M765.703 599.438C770.673 597.331 776.024 596.167 781.403 595.715C778.507 595.167 775.603 594.638 772.675 594.366C770.632 594.177 768.738 594.196 767.203 595.871C766.179 596.987 765.699 598.423 765.025 599.743C765.245 599.636 765.474 599.535 765.703 599.438ZM712.36 579.743C720.499 580.19 728.647 582.282 736.01 586.072C739.022 587.625 741.752 589.867 742.551 593.555C742.955 595.439 742.856 597.385 742.641 599.288C742.479 600.728 742.439 602.568 741.281 603.543C741.083 603.708 740.872 603.835 740.652 603.927C743.368 605.252 745.954 606.844 748.253 608.484C750.354 609.984 752.513 612.294 753.483 614.9C753.564 614.604 753.644 614.328 753.725 614.065C755.377 608.785 757.923 604.461 761.932 601.554C761.223 601.209 760.733 600.394 760.962 599.268C761.914 594.565 765.932 590.478 770.471 590.77C775.441 591.085 780.779 593.041 785.273 595.511C786.911 595.472 788.546 595.497 790.162 595.574C790.44 595.584 790.426 595.992 790.162 596.026C788.851 596.206 787.54 596.404 786.229 596.637C783.113 597.176 780.006 597.86 776.967 598.71C773.322 599.729 769.551 600.753 766.143 602.534C759.535 605.995 755.445 615.041 756.284 622.913C756.423 624.204 756.886 628.106 758.543 627.703C759.943 627.363 760.5 624.204 760.989 623.034C762.3 619.928 764.662 617.899 767.494 616.526C770.821 614.91 774.381 613.818 777.829 612.547C779.782 611.823 781.735 611.1 783.692 610.382C785.695 609.64 787.598 608.615 789.731 609.134C791.019 609.45 791.167 611.11 790.444 612.061C789.344 613.512 787.71 613.939 786.125 614.536C784.033 615.322 781.946 616.109 779.858 616.895C776.631 618.108 773.25 619.132 770.103 620.617L770.201 620.86C770.458 620.782 770.759 621.059 770.709 621.398C770.237 624.538 769.582 628.169 770.31 631.314C770.884 633.808 772.909 636.57 775.539 635.837C775.126 635.429 774.974 634.725 775.252 634.075C776.294 631.668 789.942 622.165 791.158 625.694C791.199 625.82 791.073 625.912 790.974 625.893C789.937 625.66 788.2 627.572 787.37 628.178C786.171 629.052 784.954 629.906 783.769 630.804C782.471 631.785 781.205 632.814 779.97 633.876C779.001 634.711 778.269 635.58 777.156 636.002C777.739 636.303 778.202 636.861 778.399 637.574C778.902 639.433 779.872 641.01 781.555 641.831C783.32 642.685 785.308 642.146 787.167 642.355C789.699 642.631 791.908 643.932 793.753 645.791C797.627 649.702 799.571 656.594 804.99 658.443C808.227 659.545 811.819 658.851 815.096 658.351C818.755 657.793 822.319 657.351 826.005 657.934C829.534 658.492 832.87 659.812 836.093 661.423C839.114 662.932 842.454 664.641 845.135 666.893C845.687 665.053 846.244 663.233 846.666 661.355C847.662 656.915 848.201 652.391 848.332 647.829C848.452 643.486 848.228 639.123 847.883 634.798C847.712 632.638 847.442 630.488 847.272 628.329C847.227 627.785 847.137 627.203 847.07 626.621C842.284 623.568 837.256 621.229 832.188 618.822C832.174 618.817 832.16 618.807 832.147 618.802C831.99 618.724 831.837 618.652 831.68 618.579C831.684 618.569 831.689 618.56 831.698 618.55C831.119 618.167 830.715 617.657 830.472 617.084C823.168 611.847 817.062 604.699 812.51 596.361C810.602 592.866 808.766 589.241 806.27 586.179C803.612 582.912 800.456 580.971 796.55 579.962C791.984 578.778 787.279 578.069 782.601 577.666C780.047 577.448 777.192 577.108 774.408 577.123C772.469 577.137 770.57 577.317 768.828 577.836C766.246 578.603 764.738 580.724 763.117 582.869C761.568 584.927 760.028 586.989 758.583 589.135C757.214 591.168 755.921 593.269 754.798 595.472C754.125 596.793 753.501 598.152 752.976 599.554C752.791 600.05 752.549 600.612 752.437 601.126C752.325 601.646 752.531 602.195 751.992 602.195C754.215 602.228 754.192 606.067 751.983 605.926C743.337 605.383 755.723 587.135 757.533 584.592C760.096 580.99 762.74 576.292 766.843 574.618C766.902 574.594 766.965 574.57 767.023 574.55C765.829 573.327 764.886 571.862 763.984 570.372C763.054 568.838 761.946 567.081 761.64 565.261C761.447 564.102 762.78 563.441 763.413 564.455C764.334 565.936 764.778 567.809 765.465 569.435C766.165 571.085 767.018 572.643 767.692 574.308C769.313 573.769 771.063 573.522 772.846 573.439C770.597 570.149 766.754 563.8 766.291 562.985C764.163 559.209 762.138 555.317 760.203 551.42C758.112 547.197 756.32 542.8 754.318 538.53C753.182 536.108 752.037 533.667 750.776 531.318C750.34 530.512 749.873 529.706 749.344 528.973C749.24 528.828 749.11 528.707 748.989 528.571C748.85 528.488 748.706 528.396 748.625 528.348C747.898 527.897 747.642 526.848 747.131 526.183C746.313 525.111 745.352 524.985 744.122 524.97C741.501 524.94 738.87 525.052 736.252 525.13C732.405 525.246 728.562 525.411 724.719 525.63C723.556 525.698 722.398 525.766 721.235 525.843C715.646 526.203 710.061 526.673 704.49 527.251C699.56 527.76 694.631 528.591 689.697 528.989C696.377 546.145 703.785 562.99 712.171 579.249C712.256 579.413 712.32 579.578 712.36 579.743ZM749.424 623.941C750.502 624.476 751.548 625.14 752.522 625.898C752.36 624.718 752.32 623.476 752.365 622.228C751.561 623.16 750.533 623.694 749.424 623.941ZM703.43 594.429C703.506 594.439 703.578 594.482 703.614 594.565C705.105 597.889 704.481 601.602 702.047 604.208C700.772 605.567 697.993 607.101 698.084 609.333C698.16 611.139 699.978 612.653 700.754 614.143C701.477 615.531 701.747 617.055 701.167 618.56C700.427 620.486 698.357 621.253 697.648 623.146C696.75 625.548 698.209 628.446 699.232 630.537C700.184 632.473 701.415 634.41 702.231 636.458C707.704 639.521 712.602 644.219 716.813 648.989C721.424 654.207 725.379 660.346 732.701 660.191C733.433 660.176 733.99 660.594 734.322 661.171C736.36 661.273 738.403 661.316 740.441 661.326C744.024 661.345 747.606 661.306 751.184 661.185C751.436 660.248 751.252 658.977 751.265 658.186C751.31 655.638 751.332 653.095 751.431 650.547C751.458 649.839 751.485 649.125 751.512 648.416C750.223 650.935 747.709 652.081 744.845 651.906C740.239 651.615 735.606 650.799 731.045 650.066C728.643 649.683 726.245 649.246 723.853 648.78C721.886 648.402 719.112 648.499 717.738 646.795C717.415 646.398 717.397 645.67 717.904 645.402C719.264 644.679 720.122 645.082 721.617 645.393C723.439 645.776 725.267 646.14 727.099 646.48C730.614 647.14 734.138 647.751 737.671 648.29C739.682 648.596 741.698 648.897 743.714 649.135C745.474 649.338 747.458 649.615 748.877 648.184C751.736 645.291 750.134 640.442 748.324 637.521C748.288 637.463 748.288 637.409 748.302 637.361C746.596 636.929 744.894 636.424 743.197 636.07C739.934 635.39 736.647 634.818 733.357 634.308C726.596 633.265 719.79 632.575 712.993 631.882C711.309 631.707 711.292 628.844 712.993 629.014C722.758 629.979 732.571 630.896 742.205 632.93C744.621 633.434 747.018 634.007 749.402 634.653C750.529 634.954 751.736 635.425 752.917 635.439C752.989 635.439 753.061 635.439 753.133 635.434C755.445 635.357 755.781 633.216 754.511 631.435C754.354 631.216 754.192 630.998 754.026 630.79C751.781 627.897 748.985 625.965 746.103 623.966C742.874 623.49 739.655 622.432 736.495 621.656C728.692 619.734 720.889 617.812 713.082 615.895C711.552 615.516 712.202 612.973 713.733 613.347C719.659 614.798 725.585 616.249 731.512 617.7L740.185 619.826C741.918 620.248 744.082 621.097 746.121 621.404C747.126 621.554 748.1 621.573 748.98 621.35C751.822 620.622 751.965 616.783 750.74 614.502C749.366 611.94 746.771 610.338 744.468 608.887C740.477 606.368 736.23 604.558 732.082 602.471C731.345 602.296 730.609 602.121 729.873 601.947C725.59 600.927 720.696 600.428 716.665 598.56C715.457 598.006 716.118 595.948 717.311 595.977C720.441 596.05 723.713 597.254 726.771 597.967C730.079 598.744 733.393 599.515 736.701 600.287C737.033 600.364 739 601.044 739.296 600.893C739.485 600.796 739.552 600.088 739.615 599.622C739.817 598.088 739.965 596.478 739.745 594.939C739.26 591.488 736.598 589.867 733.904 588.542C727.906 585.596 721.329 583.752 714.784 583.014C713.275 582.844 711.767 582.738 710.25 582.684C708.468 582.626 706.999 582.286 706.097 584.184C704.678 587.173 703.897 591.018 703.43 594.429ZM711.76 702.823C713.067 697.937 712.711 692.72 713.606 687.736C714.068 685.165 714.699 682.614 715.388 680.104C715.943 678.076 716.871 675.92 716.976 673.804C716.982 673.662 716.828 673.581 716.722 673.646C714.878 674.787 713.462 677.255 712.411 679.192C711.152 681.509 710.191 683.936 709.415 686.487C707.87 691.57 706.601 697.701 708.594 702.823C709.187 704.348 711.27 704.654 711.76 702.823ZM752.149 638.103C751.045 637.987 749.941 637.759 748.836 637.492C750.071 638.793 751.211 640.36 751.845 642.098C751.943 640.763 752.069 639.433 752.235 638.109C752.208 638.109 752.176 638.109 752.149 638.103ZM762.763 739.813C764.711 738.344 766.13 736.29 767.782 734.477C769.406 732.695 766.867 729.949 765.242 731.732C763.833 733.278 762.609 735.21 760.951 736.46C760.153 737.062 759.783 738.149 760.306 739.116C760.769 739.97 761.967 740.413 762.763 739.813ZM773.624 683.347C770.069 681.685 766.573 679.875 762.852 678.679C760.628 677.963 759.687 681.711 761.897 682.422C765.324 683.525 768.538 685.169 771.811 686.699C773.913 687.681 775.74 684.336 773.624 683.347ZM811.169 682.184C812.039 679.865 808.563 678.866 807.706 681.152C806.72 683.784 805.589 686.348 804.603 688.979C803.734 691.298 807.21 692.298 808.066 690.011C809.053 687.38 810.183 684.816 811.169 682.184ZM848.227 728.493C848.807 729.328 849.772 729.78 850.684 729.19C851.449 728.695 851.915 727.379 851.329 726.534C849.617 724.067 847.883 721.631 845.876 719.432C844.25 717.649 841.711 720.396 843.337 722.177C845.128 724.141 846.698 726.29 848.227 728.493ZM853.526 468.656C851.878 469.873 850.434 471.352 849.025 472.873C847.388 474.642 849.928 477.387 851.565 475.618C852.752 474.336 853.949 473.034 855.339 472.008C856.142 471.415 856.503 470.312 855.983 469.352C855.518 468.492 854.328 468.064 853.526 468.656ZM799.612 531.135C800.544 533.152 801.383 535.13 801.436 537.423C801.493 539.921 805.084 539.922 805.027 537.423C804.959 534.422 803.935 531.82 802.714 529.175C801.68 526.936 798.583 528.905 799.612 531.135ZM779.831 480.956C777.9 479.564 776.104 482.929 778.018 484.308C779.569 485.426 781.121 486.545 782.673 487.663C784.603 489.054 786.399 485.689 784.485 484.31C782.934 483.192 781.382 482.074 779.831 480.956ZM865.631 568.689C865.96 571.156 869.421 570.101 869.094 567.657C868.589 563.88 867.973 560.154 867.025 556.475C866.405 554.068 862.941 555.096 863.562 557.507C864.51 561.186 865.126 564.913 865.631 568.689ZM878.223 613.164C880.535 613.111 880.535 609.228 878.223 609.281C876.131 609.329 874.074 609.924 872.056 610.469C869.812 611.075 870.769 614.818 873.011 614.213C874.717 613.752 876.454 613.205 878.223 613.164ZM882.872 702.755C883.666 703.172 884.481 703.549 885.283 703.946C886.891 704.74 888.498 705.535 890.104 706.333C893.45 707.994 896.795 709.66 900.137 711.332C906.826 714.679 913.567 717.908 920.272 721.219C927.11 724.596 933.93 728.018 940.741 731.457C943.95 733.076 947.184 734.636 950.411 736.214C953.17 737.562 956.58 739.919 959.609 740.141C959.765 740.153 959.817 739.939 959.728 739.83C958.584 738.423 956.759 737.605 955.255 736.691C953.718 735.756 952.153 734.877 950.596 733.986C947.348 732.125 944.096 730.28 940.817 728.485C934.258 724.897 927.686 721.335 921.113 717.777C914.41 714.148 907.715 710.495 900.952 706.996C897.768 705.348 894.581 703.705 891.392 702.067C889.665 701.18 887.936 700.294 886.208 699.41C885.461 699.028 884.722 698.616 883.959 698.274C882.945 697.82 882.174 697.913 881.128 697.633C879.422 697.178 878.684 699.523 879.993 700.544C881.072 701.385 881.639 702.105 882.872 702.755ZM906.848 742.566C907.217 741.598 906.445 740.42 905.594 740.178C904.574 739.888 903.757 740.557 903.385 741.534C902.4 744.123 900.998 746.499 899.192 748.505C897.579 750.298 900.117 753.044 901.732 751.25C903.994 748.735 905.619 745.796 906.848 742.566ZM924.488 680.245C926.125 678.476 923.585 675.731 921.948 677.5L917.293 682.532C915.656 684.302 918.197 687.047 919.833 685.277L924.488 680.245ZM972.242 672.042C975.588 673.103 979.491 674.078 981.773 677.164C981.884 677.315 982.071 677.122 982.005 676.971C979.084 670.425 970.707 668.129 964.908 665.836C960.806 664.214 956.597 662.868 952.353 661.667C952.777 656.432 951.607 650.823 951.2 645.614C950.766 640.053 950.413 634.478 950.231 628.9C950.046 623.209 950.001 617.48 950.174 611.789C950.347 606.118 951.028 600.516 951.326 594.864C951.355 594.317 950.651 594.291 950.499 594.743C948.736 599.988 947.984 605.798 947.41 611.328C946.819 617.025 946.623 622.706 946.698 628.436C946.776 634.328 947.093 640.206 947.528 646.079C947.734 648.862 947.974 651.642 948.2 654.424C948.372 656.547 948.452 658.653 948.852 660.708C946.292 660.029 943.727 659.387 941.169 658.762C933.014 656.773 924.824 654.926 916.703 652.775C912.716 651.719 908.786 650.455 904.818 649.332C901.081 648.274 897.136 646.992 893.3 646.52C891.93 646.351 891.756 648.376 892.663 649.063C895.781 651.43 899.922 653.078 903.524 654.403C907.139 655.733 910.897 656.689 914.602 657.674C922.329 659.728 930.129 661.408 937.917 663.157C945.694 664.905 953.487 666.64 961.177 668.796C964.88 669.835 968.571 670.877 972.242 672.042ZM990.58 568.172C992.579 569.441 994.385 566.084 992.392 564.819C989.785 563.165 987.007 561.922 984.206 560.71C982.056 559.78 981.131 563.536 983.251 564.454C985.768 565.543 988.237 566.686 990.58 568.172ZM997.82 712.417C999.825 713.674 1001.63 710.317 999.633 709.065C996.825 707.305 993.75 706.131 990.841 704.592C988.771 703.496 986.952 706.846 989.028 707.945C991.937 709.484 995.013 710.658 997.82 712.417ZM1001.08 630.537C999.138 632.527 996.551 633.464 994.112 634.51C991.985 635.421 992.917 639.175 995.067 638.254C998.106 636.951 1001.2 635.762 1003.62 633.282C1005.3 631.557 1002.75 628.816 1001.08 630.537ZM979.631 519.337C977.499 520.241 978.433 523.994 980.585 523.081C982.973 522.069 985.439 521.298 987.826 520.286C989.957 519.382 989.024 515.629 986.871 516.541C984.484 517.554 982.018 518.325 979.631 519.337ZM941.797 475.169C939.532 474.756 938.568 478.498 940.842 478.913C943.663 479.428 946.441 480.03 949.117 481.149C951.277 482.053 952.205 478.298 950.072 477.406C947.395 476.286 944.617 475.684 941.797 475.169ZM929.296 582.708C931.372 581.604 929.55 578.258 927.483 579.356C925.305 580.513 923.048 581.408 920.672 581.955C918.409 582.476 919.372 586.219 921.627 585.699C924.301 585.083 926.846 584.01 929.296 582.708ZM917.489 522.132C915.253 521.47 914.308 525.217 916.534 525.877C920.451 527.037 924.484 527.64 928.43 528.672C930.679 529.26 931.63 525.516 929.385 524.928C925.439 523.896 921.406 523.293 917.489 522.132ZM867.402 503.123C865.129 503.578 866.098 507.319 868.357 506.868C870.762 506.387 873.199 506.379 875.637 506.377C877.952 506.376 877.948 502.494 875.637 502.495C872.867 502.496 870.133 502.577 867.402 503.123ZM704.05 523.407C709.917 522.801 715.794 522.315 721.68 521.951C721.954 521.936 722.223 521.917 722.497 521.902C722.528 521.835 722.569 521.771 722.609 521.703C724.53 518.656 725.945 515.608 727.17 512.162C728.342 508.881 729.478 505.499 731.283 502.538C733.341 499.165 736.12 496.526 739.166 494.239C741.013 495.582 742.727 497.154 744.296 498.821C745.947 500.574 748.487 497.829 746.836 496.075C745.442 494.594 743.954 493.226 742.381 491.99C744.197 490.797 746.05 489.676 747.858 488.561C754.633 484.383 761.568 480.519 768.648 476.986C771.939 475.34 775.27 473.88 778.624 472.399C780.429 471.604 782.211 470.579 784.015 469.658C783.885 468.279 784.267 466.736 785.246 465.828C785.968 465.163 786.53 464.916 787.392 464.445C787.585 464.372 787.701 464.328 787.755 464.304C787.715 464.314 787.598 464.353 787.405 464.421C786.947 464.649 786.911 464.581 787.297 464.222C787.32 463.436 788.752 461.776 789.08 460.966C790.22 458.184 790.575 455.243 792.258 452.71C794.579 449.22 798.476 447.901 802.108 449.084C802.485 444.886 802.584 440.504 804.047 436.757C804.088 436.656 804.218 436.612 804.276 436.723C805.803 439.534 805.933 442.664 806.05 445.906C806.162 448.949 806.055 452.06 805.686 455.083C805.919 455.277 806.157 455.462 806.404 455.641C807.563 456.466 808.811 457.102 810.122 457.573C812.618 458.466 815.235 458.854 817.852 458.99C824.609 459.339 831.572 458.602 838.216 457.35C844.937 456.083 855.24 454.18 861.22 450.545C865.167 448.148 868.807 445.221 872.498 442.387C871.16 437.728 870.819 432.719 872.166 428.783C872.327 428.313 873.01 428.225 873.14 428.783C873.984 432.54 874.231 436.316 875.353 440.028C875.371 440.082 875.389 440.14 875.407 440.193C875.757 439.937 876.107 439.684 876.457 439.431C877.266 438.854 878.365 439.286 878.85 440.111C886.604 453.317 898.882 454.074 911.776 456.433C925.887 459.014 940.068 461.8 953.635 466.852C966.61 471.686 979.01 478.724 988.833 489.236C991.056 491.616 993.136 494.152 995.098 496.799C993.199 497.058 991.316 497.461 989.457 498.092C987.256 498.839 988.202 502.586 990.412 501.836C992.801 501.024 995.217 500.623 997.657 500.423C1004.33 510.293 1009.54 521.485 1014.04 532.502C1022.67 553.624 1028.29 576.117 1030.87 599.018C1029.45 598.099 1028.01 597.223 1026.53 596.408C1024.47 595.276 1022.65 598.627 1024.71 599.76C1027 601.018 1029.22 602.405 1031.38 603.908C1032.32 613.933 1032.68 624.022 1032.46 634.094C1031.94 658.108 1028.94 682.826 1022.15 705.738C1018.83 716.983 1014.42 728.136 1007.85 737.639C1004.88 741.943 1001.5 745.825 997.524 749.063C995.598 750.635 993.56 752.038 991.409 753.222C988.639 754.755 985.03 755.26 982.642 757.43C981.856 758.143 981.25 759.084 980.792 760.147C981.057 762.166 981.088 764.19 980.576 766.209C980.415 766.84 979.975 767.354 979.432 767.602C979.423 767.777 979.423 767.946 979.423 768.111C979.423 768.189 979.315 768.209 979.301 768.131C979.279 767.98 979.257 767.83 979.234 767.675C979.059 767.738 978.875 767.767 978.686 767.767C971.867 767.795 965.039 767.615 958.211 767.365C958.738 765.616 959.31 763.883 959.86 762.134C960.605 759.759 957.135 758.749 956.396 761.102C955.754 763.147 955.082 765.173 954.485 767.224C947.168 766.93 939.854 766.577 932.553 766.316C917.024 765.758 901.5 765.573 885.967 765.219C861.844 764.667 837.547 763.535 813.387 764.642C812.552 762.725 811.617 760.852 810.73 758.961C809.684 756.73 806.586 758.697 807.629 760.921C808.245 762.235 808.883 763.532 809.49 764.843C804.597 765.118 799.709 765.481 794.831 765.977C786.508 766.821 778.264 768.32 769.95 769.252C761.497 770.203 753.227 770.034 744.841 768.525C743.332 768.253 742.443 767.267 742.075 766.044C742.062 766.039 742.053 766.03 742.044 766.015C741.613 765.471 741.209 765.02 740.792 764.627C740.293 764.278 739.754 763.981 739.121 763.719C737.94 763.234 736.71 762.938 735.462 762.739C734.088 762.516 732.697 762.496 731.323 762.312C730.165 762.152 729.033 761.914 727.902 761.623C725.868 761.099 723.938 760.415 722.016 759.507C720.342 758.716 718.829 757.58 717.401 756.342C714.447 754.008 711.889 751.029 709.652 747.932C708.35 746.122 707.125 744.243 706.011 742.288C704.072 738.9 702.42 735.381 700.75 731.834C700.144 730.782 699.591 729.706 699.085 728.607C702.349 727.567 705.644 726.72 709.104 726.66C711.417 726.619 711.417 722.737 709.104 722.777C705.136 722.845 701.382 723.848 697.653 725.042C697.471 724.52 697.297 723.994 697.136 723.462C696.691 722.351 696.323 721.21 696.018 720.055C695.839 719.531 695.659 719.007 695.479 718.482C695.075 716.667 694.671 714.847 694.263 713.027C693.45 710.115 692.809 707.16 692.337 704.165C691.942 702.195 691.636 700.21 691.43 698.201C690.801 693.333 690.29 688.475 690.254 683.554C690.307 680.52 690.487 677.492 690.792 674.478C690.922 672.43 691.142 670.392 691.439 668.368C691.825 665.359 692.206 662.38 692.848 659.409C693.329 657.4 693.809 655.39 694.29 653.381C695.488 649.193 696.902 645.087 698.533 641.073C698.622 640.821 699.076 640.268 699.349 640.263C699.556 640.258 699.843 640.462 699.749 640.734C699.74 640.758 699.731 640.787 699.722 640.811C699.816 640.583 699.906 640.35 700 640.122C700.081 639.909 700.395 639.482 700.638 639.487C700.651 639.487 700.665 639.487 700.683 639.491C700.62 639.443 700.561 639.38 700.503 639.307C698.891 637.245 697.845 634.531 696.691 632.143C695.735 630.173 694.833 628.096 694.572 625.868C694.344 623.913 694.653 621.986 695.789 620.403C697.082 618.603 699.515 617.758 698.164 615.157C696.629 612.197 694.37 609.629 696.62 606.266C697.764 604.553 699.578 603.612 700.925 602.121C702.474 600.398 703.211 598.093 703.17 595.739C703.075 595.798 702.95 595.769 702.905 595.623C701.603 591.371 702.546 586.703 703.879 582.563C704.606 580.316 706.147 579.699 707.937 579.588C700.18 563.209 692.921 546.566 686.451 529.541C686.236 528.983 686.025 528.426 685.814 527.867C685.499 527.032 686.164 525.921 686.931 525.736C692.525 524.411 698.353 523.989 704.05 523.407Z" fill="black"/>
<path fill-rule="evenodd" clip-rule="evenodd" d="M861.997 206.395C847.903 204.317 828.45 211.07 821.431 224.688C787.921 216.22 745.655 215.943 718.036 244.131C689.216 277.568 725.415 321.654 749.418 331.594C747.671 340.697 750.396 399.014 769.676 425.027C784.978 447.067 820.611 457.239 837.099 430.913L837.228 430.696C838.995 427.656 837.473 427.753 835.66 430.015C819.514 445.233 797.561 445.493 780.644 429.433C748.939 400.077 752.208 328.099 767.295 286.458C810.254 281.401 856.25 295.357 885.921 330.017L883.915 342.963C883.573 345.169 883.185 347.373 882.888 349.586C882.699 351.004 882.677 352.415 883.594 353.563C886.621 357.353 891.723 351.658 895.92 349.392C897.159 349.206 898.401 349.134 899.618 349.226C919.785 352.01 915.812 393.94 893.647 386.59C891.785 385.347 890.185 385.726 889.462 387.531C884.179 392.717 880.695 401.968 871.918 410.878C868.821 414.22 866.003 417.016 862.519 419.697C860.473 421.915 854.299 424.176 856.256 427.971C859.957 436.607 881.783 409.48 885.642 401.979C897.732 407.096 911.13 405.358 923.66 404.107C989.758 400.424 980.934 325.744 926.755 278.596C916.556 270.548 905.304 263.984 893.608 258.932C892.011 258.242 892.708 255.432 894.328 256.131C902.067 259.474 909.612 263.454 916.804 268.059L916.815 265.306C916.825 260.668 916.757 255.84 916.006 251.603C915.63 248.667 914.998 245.531 914.026 243.172C912.823 235.939 893.985 211.113 861.997 206.395ZM900.5 358.852C899.48 357.813 897.574 359.052 896.666 359.021C894.342 359.362 892.135 360.413 890.414 361.711C889.277 362.394 888.48 363.035 887.815 363.624L887.797 363.619C887.802 363.619 887.808 363.624 887.813 363.626L887.751 363.671C886.782 364.409 883.233 368.567 885.475 367.448C885.642 367.216 885.813 366.992 885.986 366.773C886.004 366.803 886.03 366.832 886.061 366.861L885.935 367.061C884.03 370.133 887.319 366.897 887.825 366.037C887.849 366.058 887.876 366.072 887.903 366.087L887.244 366.947C887.152 367.069 887.079 367.166 887.019 367.249L886.88 367.392C884.677 369.713 884.608 371.802 887.168 368.371C887.067 368.532 886.986 368.704 886.975 368.856L886.823 369.063C884.814 371.838 886.448 370.852 887.447 369.667L887.53 369.565L887.513 369.593C886.584 371.127 888.427 370.05 888.753 369.23L888.767 369.193C889.122 368.883 889.34 368.534 889.415 368.446L889.429 368.432C891.156 366.534 893.661 364.929 895.788 364.199C896.097 364.136 896.409 364.086 896.724 364.05C898.003 363.744 899.297 363.535 900.604 363.421C900.764 363.401 900.926 363.275 901.047 363.113C903.023 363.041 902.413 362.173 901.593 362.012L901.579 362.009L901.741 361.994C903.009 361.862 903.876 361.374 902.593 361.075L902.431 361.04C902.451 361.007 902.468 360.973 902.485 360.94C903.584 360.811 902.867 359.666 902.257 359.943C902.514 359.044 901.342 359.493 901.195 359.36C901.084 359.227 900.945 359.11 900.865 359.104C900.512 358.836 900.683 358.861 900.5 358.852ZM893.78 344.3L894.037 344.461C894.245 344.591 894.459 344.678 894.674 344.728C894.371 344.867 894.071 345.016 893.774 345.176C893.779 344.981 893.783 344.786 893.783 344.591L893.78 344.3Z" fill="black"/>
<path fill-rule="evenodd" clip-rule="evenodd" d="M732.207 332.616C732.579 332.549 732.951 332.487 733.323 332.428C733.614 332.252 733.955 332.116 734.351 332.034C735.256 331.788 736.156 331.621 737.053 331.532C749.938 328.424 779.746 332.837 780.976 344.622C785.079 346.09 788.629 344.775 793.385 344.906C797.005 328.689 859.587 330.978 862.596 340.755C862.608 340.752 862.619 340.749 862.631 340.745C865.523 339.785 869.786 340.017 873.096 339.865C880.164 339.706 887.24 340.381 894.155 341.979C907.104 344.185 924.777 346.767 915.771 364.099C915.769 364.102 915.768 364.105 915.766 364.108L915.764 364.106C914.212 365.812 911.578 364.438 911.48 362.13C914.508 353.919 907.669 352.933 902.407 350.574C889.314 345.532 875.985 344.833 862.443 346.393C861.425 347.678 859.879 348.799 858.245 349.386C849.191 350.997 853.963 358.195 848.24 359.242C849.291 384.334 820.868 398.031 804.399 381.536C797.823 374.646 796.256 364.438 794.731 355.238C793.925 355.044 793.413 354.571 793.113 353.946C791.175 351.871 789.957 349.956 786.123 349.386C782.29 348.817 779.339 349.959 778.94 350.309C778.839 350.527 778.731 350.745 778.605 350.962C778.43 351.287 778.192 351.546 777.921 351.75C781.706 376.737 763.608 392.539 745.338 379.579C737.399 371.575 735.721 359.321 735.39 348.383C734.314 347.687 733.632 346.338 734.005 344.642C734.518 342.304 733.314 340.28 731.397 339.264C728.905 337.944 729.346 333.123 732.207 332.616M810.714 344.47C812.982 343.935 813.951 347.683 811.675 348.219C810.064 348.599 808.699 349.469 807.777 350.944L807.679 351.105C806.442 353.216 803.311 351.267 804.558 349.142C805.96 346.751 808.14 345.076 810.714 344.47ZM744.292 342.146C745.092 341.543 746.302 341.991 746.766 342.844C747.277 343.783 746.942 344.829 746.193 345.443L746.117 345.503C745.43 346.022 744.761 346.952 744.677 347.905L744.67 348.024C744.58 350.518 740.964 350.53 741.054 348.024C741.142 345.572 742.467 343.524 744.292 342.146Z" fill="black"/>
</svg>
