<svg width="247" height="324" viewBox="0 0 247 324" fill="none" xmlns="http://www.w3.org/2000/svg">
<path fill-rule="evenodd" clip-rule="evenodd" d="M241.496 179.325C238.479 179.621 235.463 179.917 232.446 180.213C217.998 181.317 203.555 183.624 189.218 185.008C188.861 184.427 188.162 184.522 187.738 184.926C186.307 184.801 184.704 183.707 183.408 184.845C183.366 184.839 183.323 184.832 183.281 184.828C180.973 180.397 179.378 175.672 177.83 170.94C176.842 168.031 175.513 165.214 173.056 163.261C168.864 160.35 159.258 154.446 154.335 154.694C154.254 153.813 153.843 152.904 153.168 152.317C154.655 149.781 148.71 148.126 148.29 148.42C148.559 139.947 144.575 132.589 135.791 130.902C127.921 129.262 116.727 128.986 112.495 137.214C112.03 137.161 107.274 137.137 106.814 137.188C106.098 136.282 98.2412 144.871 101.461 147.862C72.6714 160.602 56.3014 159.082 48.3328 194.899C47.2555 198.264 47.1771 201.946 46.0395 205.236C41.9924 214.69 38.7098 224.756 37.8928 235.043C35.9197 235.549 35.6928 239.029 37.9783 239.533C38.8513 239.725 39.5813 239.988 40.2179 240.487C39.7202 248.917 41.7583 268.174 43.0424 268.114C45.6607 276.451 57.3399 278.803 65.6084 275.874C64.1831 278.557 65.6084 280.243 65.6084 281.677C95.3606 282.803 127.892 282.154 157.635 283.698C161.44 283.644 165.442 284.633 169.195 284.064C171.483 283.515 171.487 279.915 169.166 279.47L179.309 277.266C179.083 277.181 183.491 274.248 186.822 268.767C189.923 262.635 187.813 255.234 189.218 248.565C200.192 247.667 211.347 247.283 222.201 245.424C223.681 249.854 230.088 244.556 232.124 242.425C232.122 242.422 232.119 242.418 232.117 242.415C233.102 242.145 233.892 241.221 233.919 240.127C234.61 239.139 234.755 237.747 234.092 236.792C237.13 219.257 241.761 201.353 243.435 183.653C244.027 183.522 244.584 183.263 245.056 182.863L245.018 182.824C245.818 181.932 245.974 180.391 244.64 179.632C243.563 179.02 242.664 179.21 241.496 179.325Z" fill="white"/>
<path fill-rule="evenodd" clip-rule="evenodd" d="M113.043 135.303C113.94 133.049 116.97 133.925 116.632 136.293C116.43 137.711 115.654 139.209 114.956 140.452C114.388 141.463 113.741 142.451 112.862 143.209C114.426 144.668 116.048 146.074 117.712 147.409C119.528 148.866 121.437 150.208 123.411 151.442C125.141 152.524 126.95 153.483 128.581 154.717C130.098 155.865 131.479 157.246 132.183 159.048C132.931 160.967 132.606 162.949 132.054 164.867L131.991 165.084C131.428 166.984 130.452 169.274 131.805 171.064C132.493 171.976 133.494 172.621 134.359 173.35C135.127 173.997 135.848 174.701 136.509 175.458C137.951 177.107 139.124 178.962 139.864 181.03L139.93 181.218C140.564 183.048 141.028 185.29 140.171 187.087C139.925 187.602 139.132 187.434 138.994 186.933C138.683 185.797 138.699 184.607 138.438 183.454C138.166 182.256 137.714 181.119 137.123 180.042C135.981 177.96 134.434 176.182 132.606 174.678L132.058 174.233C130.632 173.062 129.322 171.82 129.033 169.883C128.723 167.81 129.553 165.835 130.087 163.873C130.459 162.505 130.58 161.194 130.178 159.959C129.687 160.761 129.017 161.522 128.487 162.201C127.431 163.554 126.366 164.898 125.303 166.246C124.213 167.627 123.15 169.03 122.138 170.47C121.685 171.114 121.237 171.761 120.791 172.41C120.455 172.897 119.987 173.384 119.621 173.881C119.71 174.147 119.703 174.454 119.542 174.671C117.602 177.294 114.841 171.821 114.121 170.439C112.655 167.623 111.564 164.632 110.093 161.816C108.568 158.898 106.833 156.057 104.898 153.393C103.728 151.782 102.416 150.268 101.346 148.605C98.8238 150.893 95.5052 152.426 92.457 153.817C89.1079 155.345 85.6285 156.593 82.1947 157.918L81.1804 158.312C75.2639 160.622 69.2029 163.16 64.2851 167.263C58.5063 172.085 55.0876 178.805 52.5424 185.764C49.6126 193.775 47.1887 202.002 44.9292 210.224C43.7729 214.431 42.6758 218.657 41.6444 222.897C40.7355 226.632 39.9822 230.404 38.93 234.1C41.0638 234.025 43.4974 234.851 45.3192 235.09C53.6218 236.177 61.8126 237.91 69.6513 240.911C70.6195 241.281 70.8997 242.249 70.6888 243.033C71.2472 242.875 71.8052 242.716 72.3636 242.559C71.7518 241.621 72.0438 239.944 72.0919 238.905L72.0948 238.834C72.1443 237.449 72.2945 236.062 72.3919 234.68C72.5773 232.044 72.8188 229.428 73.1398 226.808L73.2217 226.153C73.5855 223.302 73.8545 220.435 74.2514 217.589L74.2984 217.263C74.108 216.535 73.8864 215.816 73.6538 215.1C73.0339 213.193 72.1591 211.397 71.3924 209.55C71.3019 209.332 71.6117 209.207 71.7564 209.338C73.0548 210.506 74.0862 211.989 74.9148 213.539C74.9292 213.466 74.9419 213.393 74.9569 213.32L75.0514 212.854C75.2846 211.719 75.5682 210.524 76.2644 209.603C76.3386 209.505 76.4852 209.485 76.5553 209.603C77.2217 210.731 77.2962 212.16 77.3987 213.443C77.5147 214.895 77.5293 216.366 77.5088 217.822C77.4688 220.667 77.2684 223.52 77.1086 226.361C76.9519 229.153 76.6442 231.909 76.2477 234.673L76.1723 235.191C75.9784 236.507 75.8197 237.839 75.564 239.146L75.4918 239.501C75.3551 240.149 75.271 241.063 74.9989 241.822C81.9999 239.869 89.0117 237.96 96.0367 236.084C101.114 234.729 106.197 233.393 111.277 232.05C111.545 231.566 111.879 231.115 112.296 230.711C113.668 229.382 115.488 228.788 117.156 229.812C117.292 229.895 117.303 230.108 117.156 230.189C116.836 230.363 116.516 230.543 116.201 230.729L119.252 229.903C121.532 229.285 123.84 228.512 126.174 228.081C130.472 225.959 135.096 224.423 139.624 222.905L140.158 222.724C142.476 221.933 144.874 221.048 147.27 220.61C149.024 220.289 151.082 220.676 151.788 222.473C152.68 223.062 153.52 223.754 154.331 224.434C154.917 224.926 155.479 225.448 156.05 225.957L156.155 226.05C156.622 226.455 156.992 226.727 157.107 227.372C157.166 227.705 156.954 228.156 156.544 228.112C155.286 227.977 154.264 226.519 153.411 225.649C152.753 224.976 152.089 224.28 151.487 223.54C151.137 223.731 150.656 223.697 150.433 223.274C149.276 221.083 146.107 222.601 144.354 223.121L141.842 223.865C140.586 224.237 139.33 224.611 138.077 224.992C134.633 226.039 131.205 227.21 127.729 228.171C128.04 228.513 127.997 229.121 127.407 229.352C124.686 230.42 121.701 230.973 118.875 231.705C117.09 232.168 115.306 232.634 113.524 233.103C113.218 233.598 112.998 234.159 112.905 234.811C112.565 237.21 113.221 239.978 113.861 242.298L113.957 242.644C114.482 244.51 115.255 246.797 116.864 247.975C117.257 248.262 117.757 248.462 118.261 248.507C121.41 246.885 124.56 245.264 127.711 243.645C128.294 243.345 128.834 243.751 128.965 244.234C130.076 244.052 131.184 243.764 132.194 243.421C133.89 242.845 135.215 241.746 136.805 240.986C139.883 239.515 143.025 241.321 145.781 242.695L146.416 243.007C147.651 243.607 150.222 244.759 150.815 243.119C151.388 241.532 149.575 239.836 148.404 239.122C147.009 238.27 145.384 237.815 143.806 237.435C142.906 237.218 141.994 237.041 141.077 236.912C140.037 236.766 138.962 236.788 137.96 236.45C137.463 236.283 137.386 235.492 137.96 235.361C139.502 235.01 141.343 235.393 142.952 235.784L143.793 235.992C145.414 236.39 147.05 236.889 148.527 237.683C149.6 238.26 150.734 239.137 151.474 240.211C152.117 239.614 152.917 239.634 153.75 239.855L154.203 239.981C154.95 240.188 155.555 240.331 156.282 240.187C156.379 239.658 156.478 239.129 156.583 238.6C157.619 233.398 158.755 228.215 160.009 223.061C162.171 214.17 164.672 205.376 167.493 196.673L167.776 195.803C168.427 193.812 168.95 191.643 169.999 189.815C170.991 188.085 172.58 187.089 174.468 186.562C176.611 185.963 178.862 185.65 181.048 185.246C181.535 185.156 182.024 185.07 182.512 184.981C182.1 184.236 181.792 183.391 181.515 182.742L181.466 182.629C180.87 181.271 180.335 179.888 179.819 178.497L179.432 177.452C178.499 174.934 177.536 172.458 176.224 170.104C174.843 167.626 173.011 165.6 170.728 163.923C166.072 160.505 160.46 158.761 155.944 155.107C155.759 154.958 155.996 154.702 156.184 154.796C159.233 156.329 162.525 157.371 165.697 158.619L166.322 158.866C168.829 159.86 171.375 160.942 173.544 162.552C175.963 164.347 177.869 166.576 179.301 169.226C180.712 171.839 181.615 174.763 182.61 177.554L182.877 178.297C183.278 179.412 183.693 180.524 184.168 181.609C184.546 182.471 185.25 183.454 185.57 184.438C186.446 184.286 187.321 184.134 188.198 183.987C207.184 180.816 226.382 178.953 245.623 178.408C246.375 178.387 246.765 179.105 246.654 179.762C244.807 190.685 243.166 201.645 241.366 212.576C240.58 217.347 239.779 222.114 238.958 226.879C238.543 229.293 238.062 231.698 237.669 234.115C237.351 236.068 237.12 238.036 236.575 239.943C236.085 241.653 235.335 243.302 234.101 244.606C232.772 246.013 230.917 246.694 229.049 247.015C224.308 247.831 219.445 248.165 214.666 248.709L189.219 251.605C189.591 254.986 189.619 258.315 189.448 261.735L189.351 263.603C189.271 265.105 189.176 266.609 188.961 268.096C188.69 269.96 187.838 271.539 186.582 272.932C185.428 274.211 184.027 275.303 182.664 276.348C181.25 277.434 179.788 278.482 178.125 279.154L177.909 279.239C176.449 279.809 173.712 280.692 171.718 280.369C171.978 281.676 172.483 283.081 172.036 284.374C171.828 284.975 171.043 285.274 170.562 284.763C169.61 283.751 169.535 282.413 169.31 281.092C169.075 279.718 168.873 278.338 168.693 276.956C168.345 274.282 168.075 271.583 167.992 268.887C167.907 266.118 167.94 263.345 168.089 260.579C168.166 259.158 168.261 257.739 168.441 256.327C168.518 255.725 168.596 255.123 168.686 254.523C168.719 254.304 168.755 254.086 168.794 253.868L166.51 254.126C163.008 254.517 159.504 254.87 155.978 254.925C155.56 254.932 155.239 254.741 155.029 254.464C154.805 254.829 154.415 255.09 153.857 255.088C148.932 255.069 144.345 253.458 139.866 251.559C137.608 250.602 135.385 249.565 133.123 248.616C131.013 247.73 128.756 247.098 126.696 246.1L121.283 248.94C121.244 249.08 121.193 249.212 121.139 249.323C120.786 250.042 120.091 250.433 119.382 250.727C118.701 251.009 117.995 251.097 117.308 251.026C113.203 253.178 109.097 255.328 104.988 257.473L100.879 259.616C92.6909 263.881 84.5353 268.215 76.2959 272.38L75.6893 272.685C72.8434 274.113 69.7874 275.56 66.6291 276.64C66.5729 277.44 66.6084 278.217 66.6754 279.064L66.6915 279.248C66.7857 280.249 66.9876 281.502 66.1855 282.214C65.7682 282.584 65.0229 282.586 64.7391 282.028C64.2243 281.015 64.6865 279.419 64.8496 278.319C64.9075 277.927 64.9781 277.525 65.0824 277.135C61.4617 278.213 57.7314 278.736 54.0469 278.131C50.4595 277.542 47.6812 275.281 45.4413 272.515C43.0774 269.597 41.3976 266.197 40.4964 262.551C39.4707 258.403 39.4037 254.118 39.4278 249.869C39.4534 245.344 39.6207 240.797 40.1708 236.303C39.5681 236.161 38.8996 236.039 38.2905 236.081C37.9888 236.564 37.4036 236.767 36.8748 236.704C35.7249 237.973 38.6417 239.27 39.5738 239.594C39.8974 239.707 39.8628 240.233 39.4895 240.217L39.2543 240.206C37.814 240.129 36.326 239.883 35.4792 238.544C34.8006 237.471 35.0045 236.2 35.8134 235.324C36.3477 230.271 37.625 225.349 38.8138 220.419C39.9805 215.58 41.2779 210.773 42.653 205.989L43.2695 203.848C45.4346 196.348 47.6977 188.787 50.6843 181.584C52.1757 177.988 53.8937 174.458 56.2225 171.322C58.3933 168.399 60.9562 165.897 63.9021 163.761C69.394 159.778 75.8382 157.371 82.1699 155.078L82.4533 154.976C85.7345 153.788 89.0076 152.587 92.2514 151.3C95.1203 150.163 97.8686 148.72 100.724 147.565C100.631 147.397 100.542 147.227 100.455 147.054L100.403 147.099C100.394 147.106 100.384 147.113 100.375 147.119C100.088 147.319 99.6648 147.221 99.4282 146.997C98.7601 146.367 98.9863 145.667 99.4323 145.012L99.4903 144.929C100.036 144.165 100.522 143.357 101.026 142.564L101.341 142.069C102.186 140.746 103.074 139.413 104.201 138.32C104.723 137.813 105.294 137.434 105.899 137.151C105.848 137.042 106.301 136.818 106.43 136.93C108.348 136.228 110.554 136.375 112.645 136.569M187.988 251.745L185.322 252.048C182.388 252.382 179.454 252.705 176.519 253.024L170.145 253.717C170.128 254.081 170.084 254.436 170.076 254.711C170.035 256.126 170.004 257.542 169.974 258.958C169.915 261.796 169.98 264.637 170.167 267.469C170.348 270.214 170.586 272.959 170.957 275.685L171.032 276.23L171.076 276.517C171.379 276.546 171.676 276.69 171.923 276.985C172.462 277.629 174.414 277.003 175.177 276.731C176.431 276.285 177.611 275.531 178.701 274.775C179.765 274.036 180.723 273.175 181.644 272.268L182.397 271.523C183.146 270.778 183.896 269.985 184.355 269.048C184.978 267.777 185.059 266.217 185.241 264.833C185.466 263.131 185.734 261.429 186.016 259.735M110.589 233.877L110.312 233.949C100.266 236.62 90.2353 239.369 80.1585 241.921C75.1717 243.185 70.1613 244.356 65.1684 245.596L64.3601 245.798C60.4212 246.794 56.4351 247.992 53.4188 250.85C53.3074 250.956 53.1458 250.794 53.2506 250.682C56.5014 247.22 61.1248 245.755 65.5639 244.484C66.3845 244.249 67.2061 244.02 68.0269 243.787C61.9897 241.634 55.8572 239.76 49.5832 238.424C47.9676 238.08 46.3333 237.828 44.719 237.482C43.5932 237.241 42.4937 236.893 41.3798 236.604L40.5036 236.384L40.4919 239.154C40.4773 243.078 40.4843 246.998 40.6844 250.921L40.7223 251.648C40.9558 256.014 41.3202 260.471 42.8689 264.587C44.1274 267.933 46.1334 271.084 48.7567 273.521C50.0841 274.753 51.5112 275.713 53.2753 276.187C54.9133 276.627 56.6294 276.678 58.3132 276.561C66.3898 275.997 73.5792 271.608 80.595 267.974C92.0704 262.031 103.547 256.09 115.034 250.169C114.724 249.956 114.431 249.712 114.165 249.437C112.625 247.845 111.812 245.667 111.279 243.557C110.711 241.311 110.371 238.904 110.331 236.585M125.205 252.463C125.306 252.409 125.424 252.477 125.429 252.591C125.464 253.469 124.979 254.335 124.617 255.125L124.579 255.21C124.139 256.189 123.657 257.156 123.158 258.107C122.162 260.007 121.127 261.887 120.046 263.74C117.874 267.469 115.459 271.04 112.606 274.286C111.961 275.02 110.901 274.079 111.315 273.29C113.309 269.483 115.634 265.889 118.027 262.327C119.225 260.543 120.423 258.757 121.632 256.982C122.137 256.241 122.648 255.502 123.173 254.775L123.49 254.34M244.35 180.588C234.269 180.893 224.2 181.55 214.167 182.581C204.836 183.54 195.54 184.815 186.295 186.406C184.365 186.738 182.436 187.084 180.51 187.444L179.355 187.661C177.428 188.026 175.075 188.177 173.36 189.206C171.552 190.292 171.063 192.56 170.461 194.43C169.754 196.63 169.065 198.836 168.394 201.047C165.73 209.827 163.297 218.684 161.127 227.598C160.049 232.023 159.093 236.473 158.086 240.914C157.191 244.86 156.203 248.762 155.172 252.668C155.299 252.569 155.455 252.494 155.643 252.454C160.766 251.363 165.995 250.889 171.195 250.287L171.698 250.228C177.076 249.596 182.455 248.967 187.837 248.362L223.469 244.353C225.57 244.117 227.822 244.085 229.867 243.521C233.344 242.561 234.159 238.673 234.742 235.576L234.76 235.482C236.519 226.125 237.919 216.686 239.559 207.306M156.001 241.791C154.618 241.699 152.724 240.432 151.675 240.523C152.226 241.448 152.474 242.502 152.157 243.629C151.273 246.764 147.277 245.142 145.351 244.184C143.773 243.399 142.249 242.437 140.502 242.069C138.522 241.653 137.181 242.441 135.508 243.348C134.135 244.094 132.639 244.629 131.1 244.906C130.282 245.054 129.505 245.069 128.73 245.012C128.683 245.05 128.63 245.085 128.57 245.117L128.16 245.332C130.015 245.417 131.905 245.99 133.631 246.514C135.42 247.057 137.177 247.712 138.924 248.382L140.642 249.042C144.881 250.666 149.27 252.208 153.857 252.195C154.187 252.194 154.457 252.285 154.67 252.434M148.261 231.968C149.628 231.801 150.889 231.98 151.981 232.87C153.298 233.944 154.183 235.724 156.077 235.84C156.629 235.875 156.757 236.651 156.208 236.813C154.799 237.231 153.658 236.468 152.698 235.478L152.052 234.803C151.103 233.82 150.228 233.06 148.618 233.119C146.893 233.182 145.166 233.58 143.453 233.783C141.512 234.013 139.572 234.208 137.625 234.377C137.535 234.385 137.519 234.242 137.604 234.222L139.784 233.679M146.942 226.379L147.167 226.356C149.152 226.164 150.967 226.156 152.739 227.224L153.079 227.43C154.677 228.401 156.417 229.546 157.416 231.119C157.579 231.377 157.309 231.68 157.036 231.614C155.115 231.153 153.711 229.743 152.096 228.688C150.283 227.504 148.411 227.7 146.344 227.884C144.343 228.062 142.343 228.306 140.361 228.64C138.499 228.953 136.631 229.448 134.751 229.606L134.751 229.602C134.536 229.601 134.414 229.279 134.633 229.169C136.541 228.216 138.752 227.765 140.828 227.329M207.23 206.756C207.038 205.838 208.167 205.413 208.69 206.141L208.801 206.294C209.931 207.843 211.566 209.787 211.483 211.756C212.476 211.778 213.506 212.382 213.893 213.279C214.072 213.694 214.133 214.185 214.093 214.694C214.996 214.764 215.981 215.357 216.533 215.935C217.448 216.892 217.52 218.245 216.864 219.363C215.432 221.801 212.306 222.688 209.666 222.886L209.572 222.893C206.846 223.081 202.918 223.031 201.049 220.691C199.245 218.434 201.238 216.606 203.282 215.614C202.75 215.128 202.474 214.431 202.733 213.696C203.188 212.405 204.794 211.906 205.701 211.008C206.808 209.913 207.539 208.412 207.247 206.842M208.729 208.741C208.428 210.048 207.689 211.243 206.661 212.191C206.267 212.553 205.837 212.875 205.38 213.152L205.325 213.184C204.919 213.412 203.922 213.839 203.998 214.35C204.077 214.876 205.702 215.698 206.145 215.699C206.246 215.699 206.303 215.856 206.2 215.902C205.397 216.256 204.696 216.408 203.912 216.034C203.387 216.569 202.878 217.123 202.373 217.673C201.481 218.645 201.786 219.671 202.841 220.395C204.535 221.557 207.11 221.529 209.086 221.445C211.075 221.36 213.202 220.916 214.756 219.59L214.823 219.531C215.668 218.78 216.439 217.507 215.146 216.783C214.639 216.5 214.092 216.516 213.611 216.378C213.161 217.261 212.431 217.968 211.541 218.104C210.821 218.214 210.325 217.309 210.98 216.876L211.127 216.785C211.949 216.26 212.651 215.451 212.632 214.398C212.62 213.667 211.599 212.744 210.934 213.43L210.904 213.463C210.348 214.091 209.368 213.3 209.734 212.605L209.751 212.574M78.985 172.393C78.9825 172.236 79.2033 172.177 79.2804 172.313C80.5717 174.586 81.2467 177.372 81.9346 179.875C82.655 182.498 83.2366 185.148 83.7591 187.817C84.8173 193.221 85.3812 198.595 85.4194 204.103C85.4247 204.889 84.144 205.098 84.0187 204.293C83.187 198.935 82.39 193.571 81.552 188.215C81.1303 185.521 80.6395 182.837 80.1698 180.151M91.7684 176.352C91.6734 176.038 92.1293 175.933 92.2459 176.22C94.8373 182.583 95.7149 189.795 94.0512 196.509C93.7966 197.536 92.293 197.091 92.4851 196.077M125.195 170.697C125.182 170.463 125.486 170.426 125.601 170.587C126.829 172.318 127.338 174.636 129.492 175.53C130.568 175.977 131.778 175.899 132.728 176.653C133.364 177.158 133.851 177.954 133.374 178.718C133.22 178.965 132.79 179.089 132.581 178.82C132.276 178.43 132.115 177.962 131.701 177.669C131.118 177.256 130.33 177.23 129.661 177.036C128.795 176.785 128.032 176.345 127.407 175.692M145.708 141.83C145.835 141.766 145.956 141.807 146.037 141.916C146.153 142.072 146.139 142.224 145.997 142.331C146.186 142.718 146.41 143.686 146.441 143.827C146.571 144.398 146.708 144.966 146.852 145.534C147.142 146.679 147.397 147.833 147.687 148.978C147.995 150.192 148.362 151.393 148.771 152.577C148.797 152.654 148.826 152.732 148.856 152.811L148.903 152.931L148.914 152.913C148.997 152.782 149.17 152.874 149.15 153.012C149.131 153.139 149.105 153.264 149.084 153.391L149.126 153.504C149.393 154.223 149.576 154.981 149.086 155.615C148.903 155.853 148.701 155.993 148.45 156.035C148.047 157.365 147.541 158.669 146.999 159.922L146.841 160.288C146.044 162.116 145.195 163.92 143.927 165.477C142.542 167.176 140.637 168.336 139.431 170.198C138.87 171.064 138.48 171.975 138.163 172.953L138.043 173.325C137.819 174.016 137.559 174.687 136.91 175.093C136.703 175.222 136.393 175.181 136.226 175.004C134.896 173.597 136.289 170.968 137.091 169.605C138.206 167.709 139.82 166.497 141.436 165.067C143.178 163.526 144.289 161.464 145.363 159.432C146.022 158.188 146.657 156.917 147.326 155.667C146.627 155.049 146.403 153.821 146.167 152.968L146.145 152.891C145.754 151.524 145.443 150.122 145.246 148.714C145.057 147.36 144.978 146.026 145.028 144.664L145.043 144.317M148.307 148.275C148.153 148.063 148.409 147.823 148.621 147.867C149.909 148.134 151.168 148.914 152.325 149.545L152.448 149.612C153.371 150.109 154.3 150.719 154.785 151.687C155.312 152.738 155.268 153.949 155.196 155.092L155.19 155.199C155.102 156.569 155.087 157.992 154.798 159.338C154.649 160.026 154.026 160.22 153.493 160.058C152.859 162.061 151.077 163.537 149.776 165.118C148.116 167.134 148.428 169.855 148.602 172.282C148.672 173.265 147.45 173.544 146.821 173.02L145.37 171.815C145.129 171.613 144.888 171.412 144.647 171.21C144.441 171.036 144.237 170.861 144.034 170.684L143.732 170.417C143.598 170.297 143.006 169.636 142.833 169.608C142.414 169.542 141.418 170.647 141.077 170.993L141.034 171.037C140.393 171.666 139.813 172.343 139.273 173.061C139.174 173.192 138.98 173.083 139.051 172.931C139.535 171.894 140.097 170.903 140.765 169.976L140.9 169.791C141.344 169.192 141.94 168.134 142.725 167.958C143.682 167.742 144.638 168.702 145.335 169.236L145.379 169.269C145.711 169.518 146.038 169.771 146.365 170.026C146.331 168.219 146.559 166.393 147.492 164.835C148.15 163.737 149.135 162.923 149.978 161.979C150.917 160.928 151.407 159.636 152.257 158.542C152.366 158.401 152.517 158.325 152.68 158.301C152.713 157.421 152.843 156.532 152.943 155.662L152.972 155.401C153.073 154.456 153.312 153.3 152.849 152.415C152.412 151.578 151.409 150.987 150.666 150.42L150.059 149.949M106.494 138.274C106.107 138.498 105.744 138.777 105.415 139.126C104.38 140.225 103.639 141.593 102.919 142.908C102.531 143.617 102.157 144.333 101.766 145.04C101.596 145.347 101.421 145.651 101.244 145.955C101.163 146.095 100.92 146.373 100.799 146.544C100.933 146.732 101.071 146.917 101.212 147.099C101.266 147.169 104.98 151.217 106.275 152.801C108.258 155.227 110.03 157.79 111.545 160.534C113.028 163.22 114.158 166.064 115.532 168.803C116.22 170.174 116.988 171.535 117.967 172.722C118.005 172.768 118.045 172.812 118.084 172.857C118.457 171.847 119.415 170.766 119.885 170.145L119.929 170.086C120.996 168.648 122.123 167.253 123.274 165.881C124.325 164.629 125.403 163.404 126.507 162.199L126.922 161.748C127.691 160.917 128.668 159.673 129.795 159.079C129.674 158.864 129.534 158.651 129.374 158.441C128.319 157.062 126.827 156.061 125.356 155.158L124.401 154.577C120.804 152.384 117.262 150.089 114.139 147.239C112.487 145.732 110.857 144.152 109.468 142.393L108.977 141.772M112.497 137.188C110.812 137.329 108.993 137.296 107.436 137.845C108.82 139.154 110.136 140.567 111.487 141.898C111.608 140.998 111.853 140.109 112.062 139.231" fill="black"/>
<path fill-rule="evenodd" clip-rule="evenodd" d="M160.432 96.8527C160.348 92.1181 160.255 87.2887 159.552 82.6001C158.864 78.0164 156.972 73.8731 153.72 70.5445C146.813 63.4742 136.801 61.7473 127.482 60.1647L111.548 57.4587C106.687 56.6334 101.501 55.3142 96.5895 56.4846C94.1695 57.0614 92.1143 58.4014 90.2359 59.9867C88.4253 61.5148 86.4787 63.1557 85.2519 65.2115C84.0229 67.2703 83.6002 69.6769 83.2007 72.0054C82.75 74.6305 82.4 77.2762 82.1513 79.9282C81.6529 85.2416 81.5849 90.5949 81.9464 95.9192C82.1215 98.5017 82.4002 101.077 82.7559 103.64C82.9324 104.912 83.1318 106.18 83.357 107.444C83.4233 107.816 83.4738 108.229 83.5419 108.645C83.0393 110.075 82.7536 111.556 82.7766 113.031C82.8445 117.375 86.5093 120.109 90.204 121.578C92.3462 122.429 94.5859 123.007 96.6907 123.958C98.905 124.959 100.412 126.58 101.926 128.43C104.814 131.959 108.072 135.13 111.793 137.775C119.681 143.385 129.672 146.038 139.243 144.024C141.54 143.541 143.857 142.791 145.921 141.66C148.1 140.467 149.739 138.737 151.115 136.692C153.671 132.896 155.503 128.622 156.89 124.272C158.304 119.835 159.307 115.39 159.855 110.763C160.4 106.152 160.515 101.493 160.432 96.8527V96.8527Z" fill="white"/>
<path fill-rule="evenodd" clip-rule="evenodd" d="M109.587 40.9657C116.181 40.0584 125.281 43.0074 128.565 48.9535C144.242 45.2561 164.016 45.135 176.937 57.4434C190.42 72.0439 173.485 91.2948 162.255 95.6351C163.073 99.6099 161.798 125.074 152.778 136.433C145.619 146.057 128.949 150.499 121.235 139.004L121.174 138.909C120.348 137.581 121.06 137.624 121.908 138.611C129.462 145.257 139.732 145.37 147.647 138.357C162.479 125.539 160.95 94.1087 153.892 75.926C133.794 73.7178 112.275 79.8117 98.3941 94.9463L99.3328 100.599C99.4927 101.563 99.6744 102.525 99.813 103.491C99.9017 104.111 99.9116 104.727 99.4828 105.228C98.0666 106.883 95.68 104.396 93.7162 103.407C93.1365 103.325 92.5557 103.294 91.9861 103.334C82.5514 104.55 84.4103 122.859 94.7797 119.65C95.651 119.107 96.3995 119.272 96.7376 120.06C99.2092 122.325 100.839 126.364 104.945 130.255C106.394 131.714 107.713 132.935 109.342 134.106C110.3 135.074 113.188 136.062 112.272 137.719C110.541 141.49 100.33 129.645 98.5249 126.369C92.8686 128.603 86.6003 127.844 80.7387 127.298C49.8154 125.69 53.9436 93.0807 79.2907 72.4929C84.0619 68.9789 89.3261 66.1124 94.7981 63.9065C95.5452 63.6054 95.2188 62.3783 94.4611 62.6837C90.8404 64.1435 87.3108 65.881 83.9461 67.892L83.9411 66.6897C83.9361 64.6647 83.9679 62.5565 84.3195 60.7063C84.4952 59.4242 84.7908 58.0549 85.2459 57.0248C85.8085 53.8666 94.6215 43.026 109.587 40.9657ZM91.5735 107.537C92.0509 107.084 92.9423 107.625 93.3673 107.611C94.4543 107.76 95.487 108.219 96.2923 108.786C96.8241 109.084 97.1968 109.364 97.5082 109.621L97.5166 109.619C97.5143 109.619 97.5113 109.621 97.5088 109.622L97.5381 109.642C97.9916 109.964 99.6515 111.779 98.6028 111.291C98.5246 111.19 98.4445 111.092 98.3638 110.996C98.3551 111.009 98.3431 111.022 98.3287 111.035L98.3876 111.122C99.279 112.463 97.7401 111.05 97.5033 110.675C97.4921 110.684 97.4794 110.69 97.467 110.697L97.7753 111.072C97.8184 111.125 97.8523 111.168 97.8804 111.204L97.9454 111.267C98.976 112.28 99.0082 113.192 97.8109 111.694C97.858 111.764 97.8959 111.839 97.9011 111.906L97.9721 111.996C98.9122 113.208 98.1475 112.778 97.6804 112.26L97.6413 112.215L97.6493 112.228C98.0839 112.897 97.2216 112.427 97.0693 112.069L97.0628 112.053C96.8968 111.917 96.7946 111.765 96.7596 111.727L96.7531 111.72C95.9448 110.892 94.7731 110.191 93.7778 109.872C93.6335 109.845 93.4875 109.823 93.3401 109.807C92.7416 109.674 92.1365 109.582 91.5251 109.533C91.4503 109.524 91.3744 109.469 91.3178 109.398C90.3933 109.367 90.6787 108.988 91.0623 108.917L91.069 108.916L90.9929 108.91C90.3995 108.852 89.9943 108.639 90.5943 108.508L90.6703 108.493C90.661 108.478 90.6528 108.464 90.6447 108.449C90.1309 108.393 90.4662 107.893 90.7514 108.014C90.6314 107.622 91.1799 107.817 91.2483 107.759C91.3005 107.701 91.3654 107.65 91.4028 107.647C91.568 107.531 91.4879 107.541 91.5735 107.537ZM94.7172 101.183L94.5968 101.253C94.4994 101.31 94.3992 101.348 94.2987 101.37C94.4407 101.431 94.5809 101.496 94.7197 101.566C94.7175 101.481 94.7159 101.395 94.7159 101.31L94.7172 101.183Z" fill="black"/>
<path fill-rule="evenodd" clip-rule="evenodd" d="M166.282 98.7965C166.108 98.7675 165.934 98.7403 165.76 98.7147C165.624 98.6376 165.465 98.5782 165.279 98.5424C164.855 98.4349 164.435 98.3624 164.015 98.3233C157.987 96.9662 144.042 98.8931 143.466 104.039C141.547 104.68 139.886 104.106 137.661 104.163C135.967 97.0818 106.689 98.0813 105.281 102.351C105.276 102.349 105.271 102.348 105.265 102.346C103.912 101.927 101.918 102.028 100.369 101.962C97.0624 101.893 93.7521 102.187 90.5169 102.885C84.4588 103.848 76.1909 104.976 80.4042 112.544C80.405 112.545 80.4057 112.547 80.4067 112.548L80.4073 112.547C81.1335 113.292 82.3658 112.692 82.4116 111.684C80.9951 108.099 84.1945 107.668 86.6562 106.638C92.7815 104.437 99.0177 104.131 105.353 104.812C105.829 105.374 106.553 105.863 107.317 106.119C111.553 106.823 109.32 109.966 111.998 110.423C111.506 121.38 124.803 127.361 132.508 120.158C135.584 117.149 136.318 112.692 137.031 108.675C137.408 108.59 137.648 108.384 137.788 108.11C138.695 107.205 139.265 106.368 141.058 106.119C142.851 105.871 144.232 106.37 144.419 106.523C144.466 106.618 144.516 106.713 144.575 106.808C144.657 106.95 144.769 107.063 144.896 107.152C143.124 118.062 151.591 124.963 160.139 119.304C163.853 115.809 164.638 110.458 164.793 105.681C165.297 105.378 165.615 104.788 165.441 104.048C165.201 103.027 165.764 102.143 166.661 101.699C167.827 101.123 167.621 99.0182 166.282 98.7965M129.554 103.973C128.493 103.739 128.039 105.376 129.104 105.61C129.858 105.776 130.496 106.156 130.928 106.8L130.973 106.87C131.552 107.792 133.017 106.941 132.434 106.013C131.778 104.969 130.758 104.238 129.554 103.973ZM160.628 102.958C160.254 102.694 159.688 102.89 159.471 103.263C159.232 103.673 159.389 104.129 159.739 104.398L159.775 104.424C160.096 104.65 160.409 105.057 160.448 105.473L160.452 105.525C160.494 106.614 162.185 106.619 162.143 105.525C162.102 104.454 161.482 103.559 160.628 102.958Z" fill="black"/>
</svg>
